<svg xmlns="http://www.w3.org/2000/svg" width="16" height="16" fill="none" viewBox="0 0 16 16"><path fill="#8da5f3" d="M5 12a1 1 0 0 1-1 1H2a1 1 0 0 1-1-1v-1h4zM10 12a1 1 0 0 1-1 1H7a1 1 0 0 1-1-1v-1h4zM15 12a1 1 0 0 1-1 1h-2a1 1 0 0 1-1-1v-1h4zM2.736 3.132a.59.59 0 0 1 .528 0A3.14 3.14 0 0 1 5 5.942V10H1V5.942c0-1.19.672-2.278 1.736-2.81M7.736 3.132a.59.59 0 0 1 .528 0A3.14 3.14 0 0 1 10 5.942V10H6V5.942c0-1.19.672-2.278 1.736-2.81M12.736 3.132a.59.59 0 0 1 .528 0A3.14 3.14 0 0 1 15 5.942V10h-4V5.942c0-1.19.672-2.278 1.736-2.81"/></svg>