<svg xmlns="http://www.w3.org/2000/svg" width="16" height="16" fill="none" viewBox="0 0 16 16"><path fill="#8da5f3" d="M8 5.917c3-1.816 6-.943 6 2.702C14 10.442 13 15 10 15c-1 0-2-.912-2-.912S7 15 6 15c-1.736 0-2.802-1.527-3.393-3.167a2.5 2.5 0 1 0-.479-4.423C2.733 4.801 5.367 4.322 8 5.917"/><path fill="#8da5f3" d="M8.764.993c.26-.052.548.014.79.175.243.161.415.403.466.663a.86.86 0 0 1-.188.724q-.07.082-.136.168c-.379.462-.628 1.028-.8 1.658q-.452.165-.896.393a8 8 0 0 0-.636-.292c.032-.914.197-1.857.662-2.766q.068-.137.142-.27a.86.86 0 0 1 .596-.453"/></svg>