<svg xmlns="http://www.w3.org/2000/svg" width="16" height="16" fill="none" viewBox="0 0 16 16"><path fill="#8da5f3" d="M12.172 1a2.828 2.828 0 0 1 2 4.828l-8.344 8.344a2.83 2.83 0 0 1-4-4l8.344-8.344a2.83 2.83 0 0 1 2-.828M7.5 10a.5.5 0 1 0 0 1 .5.5 0 0 0 0-1m1-1a.5.5 0 1 0 0 1 .5.5 0 0 0 0-1m-3-1a.5.5 0 1 0 0 1 .5.5 0 0 0 0-1m4 0a.5.5 0 1 0 0 1 .5.5 0 0 0 0-1m-3-1a.5.5 0 1 0 0 1 .5.5 0 0 0 0-1m4 0a.5.5 0 1 0 0 1 .5.5 0 0 0 0-1m-3-1a.5.5 0 1 0 0 1 .5.5 0 0 0 0-1m1-1a.5.5 0 1 0 0 1 .5.5 0 0 0 0-1M14.172 10.172a2.83 2.83 0 0 1-4 4l-1.465-1.465 4-4zM3.828 1c.75 0 1.47.298 2 .828l1.465 1.465-4 4-1.465-1.465a2.83 2.83 0 0 1 2-4.828"/></svg>