<svg xmlns="http://www.w3.org/2000/svg" width="16" height="16" fill="none" viewBox="0 0 16 16"><path fill="#8da5f3" d="M2.712 12.582a6.97 6.97 0 0 1-1.7-4.185A5.99 5.99 0 0 1 5.51 9.784zM6.219 9.075a6.98 6.98 0 0 0-5.19-1.684A6.97 6.97 0 0 1 2.71 3.417L7.293 8zM8 7.293 3.418 2.71a6.97 6.97 0 0 1 3.974-1.682 6.98 6.98 0 0 0 1.683 5.19zM6.217 10.49a6 6 0 0 1 1.387 4.498 6.97 6.97 0 0 1-4.186-1.698zM12.582 13.289a6.97 6.97 0 0 1-3.973 1.683 6.98 6.98 0 0 0-1.683-5.19L8 8.708zM9.784 5.51A5.99 5.99 0 0 1 8.398 1.01a6.97 6.97 0 0 1 4.185 1.7zM14.973 8.608a6.97 6.97 0 0 1-1.684 3.973l-4.582-4.58 1.075-1.076a6.98 6.98 0 0 0 5.19 1.683M14.988 7.603a5.99 5.99 0 0 1-4.496-1.387l2.798-2.799a6.97 6.97 0 0 1 1.698 4.186"/></svg>