<svg xmlns="http://www.w3.org/2000/svg" width="16" height="16" fill="none" viewBox="0 0 16 16"><path fill="#8da5f3" d="M6 1a2 2 0 0 1 2 2v1a1.5 1.5 0 0 1-1.5 1.5.5.5 0 0 0 0 1c.564 0 1.082-.19 1.5-.504V8a2.5 2.5 0 0 1-2.5 2.5.5.5 0 0 0 0 1c.98 0 1.865-.404 2.5-1.053V13a2 2 0 0 1-3.99.204L4 13l-.154-.004a3 3 0 0 1-1.103-5.719A2.501 2.501 0 0 1 4 3.05V3a2 2 0 0 1 2-2M11 1a2 2 0 0 1 2 2v.05a2.501 2.501 0 0 1 1.256 4.227 2.998 2.998 0 0 1-1.102 5.72L13 13a2 2 0 1 1-4 0v-2.553a3.49 3.49 0 0 0 2.5 1.053.5.5 0 0 0 0-1A2.5 2.5 0 0 1 9 8V5.996c.418.315.936.504 1.5.504a.5.5 0 0 0 0-1A1.5 1.5 0 0 1 9 4V3a2 2 0 0 1 2-2"/></svg>