<svg xmlns="http://www.w3.org/2000/svg" width="16" height="16" fill="none" viewBox="0 0 16 16"><path fill="#8da5f3" d="M5.293 9.293a1 1 0 1 1 1.414 1.414L4.414 13H5a1 1 0 1 1 0 2H2a1 1 0 0 1-1-1v-3a1 1 0 1 1 2 0v.586zM9.293 9.293a1 1 0 0 1 1.414 0L13 11.586V11a1 1 0 1 1 2 0v3a1 1 0 0 1-1 1h-3a1 1 0 1 1 0-2h.586l-2.293-2.293a1 1 0 0 1 0-1.414M5 1a1 1 0 0 1 0 2h-.586l2.293 2.293a1 1 0 1 1-1.414 1.414L3 4.414V5a1 1 0 0 1-2 0V2a1 1 0 0 1 1-1zM14 1a1 1 0 0 1 1 1v3a1 1 0 1 1-2 0v-.586l-2.293 2.293a1 1 0 1 1-1.414-1.414L11.586 3H11a1 1 0 1 1 0-2z"/></svg>