<svg xmlns="http://www.w3.org/2000/svg" width="16" height="16" fill="none" viewBox="0 0 16 16"><path fill="#8da5f3" d="m10.26 11.5 1.774 2.219A6.97 6.97 0 0 1 8 15a6.97 6.97 0 0 1-4.035-1.281L5.74 11.5zM1.314 5.964l2.284.913 1.34 4.022-1.748 2.185A6.98 6.98 0 0 1 1 8c0-.71.106-1.395.303-2.041zM14.696 5.959a7 7 0 0 1-1.887 7.125l-1.748-2.185 1.34-4.022 2.284-.913zM11.411 6.684 10.14 10.5H5.86L4.588 6.684 8 4.125zM7.5 3.249 3.924 5.931l-2.238-.895-.024-.01A7 7 0 0 1 7.5 1.02zM8.5 1.02a7 7 0 0 1 5.837 4.006l-.022.01-2.24.895L8.5 3.249z"/></svg>