<svg xmlns="http://www.w3.org/2000/svg" width="16" height="16" fill="none" viewBox="0 0 16 16"><path fill="#8da5f3" d="M12.647 7.354a.5.5 0 0 0 .707 0L15 5.707V13a2 2 0 0 1-2 2H3a2 2 0 0 1-2-2V5.707l1.646 1.647a.5.5 0 0 0 .708 0L5.5 5.207l2.146 2.147a.5.5 0 0 0 .708 0L10.5 5.207zM4.5 10a1.5 1.5 0 1 0 0 3 1.5 1.5 0 0 0 0-3m8 0a.5.5 0 1 0 0 1 .5.5 0 0 0 0-1M10 8a1 1 0 1 0 0 2 1 1 0 0 0 0-2"/><path fill="#8da5f3" d="M13 1a2 2 0 0 1 2 2v1.293l-2 2-2.146-2.147a.5.5 0 0 0-.63-.064l-.078.064L8 6.293 5.854 4.146a.5.5 0 0 0-.63-.064l-.078.064L3 6.293l-2-2V3a2 2 0 0 1 2-2z"/></svg>