<svg xmlns="http://www.w3.org/2000/svg" width="16" height="16" fill="none" viewBox="0 0 16 16"><path fill="#8da5f3" d="M8 1a7 7 0 1 1 0 14A7 7 0 0 1 8 1m-2 9c-.552 0-1.016.46-.835.981a3 3 0 0 0 .714 1.14l.22.2a3 3 0 0 0 1.604.664L8 13a3 3 0 0 0 2.775-1.86l.06-.159c.18-.521-.283-.981-.835-.981zm-.72-3.78a.75.75 0 0 0-1.004-.052l-.056.052-1 1a.75.75 0 1 0 1.06 1.06l.47-.47.47.47a.75.75 0 1 0 1.06-1.06zm6.5 0a.75.75 0 0 0-1.004-.052l-.056.052-1 1a.75.75 0 1 0 1.06 1.06l.47-.47.47.47a.75.75 0 1 0 1.06-1.06z"/></svg>