<svg xmlns="http://www.w3.org/2000/svg" width="16" height="16" fill="none" viewBox="0 0 16 16"><path fill="#8da5f3" d="M9 1a2 2 0 0 1 2 2v1.83c0 .093.076.17.17.17a.18.18 0 0 0 .151-.084 2 2 0 1 1 0 2.168.18.18 0 0 0-.15-.084.17.17 0 0 0-.171.17V9a2 2 0 0 1-2 2H7.17a.17.17 0 0 0-.17.17.18.18 0 0 0 .084.151 2 2 0 1 1-2.168 0 .18.18 0 0 0 .084-.15.17.17 0 0 0-.17-.171H3a2 2 0 0 1-2-2V7.171C1 7.077 1.077 7 1.171 7a.18.18 0 0 1 .15.084 2 2 0 1 0 0-2.168.18.18 0 0 1-.15.084A.17.17 0 0 1 1 4.829V3a2 2 0 0 1 2-2z"/></svg>