<svg xmlns="http://www.w3.org/2000/svg" width="16" height="16" fill="none" viewBox="0 0 16 16"><path fill="#8da5f3" d="M6.422 9.528c.348.587.889 1.042 1.537 1.282l-3.19 3.83a1.001 1.001 0 0 1-1.538-1.28z"/><path fill="#8da5f3" d="M9 1a1 1 0 0 1 1 1v3.001l1.2-1.6A1 1 0 0 1 12.8 4.6l-1.173 1.566 2.087-.624a1 1 0 0 1 .573 1.916l-1.731.518.22.063a1 1 0 1 1-.552 1.922l-.486-.14 2.043 2.554a1 1 0 0 1-1.562 1.25L10 10.852V12a1 1 0 1 1-2 0v-1.175c.313.111.649.175 1 .175a3 3 0 1 0 0-6 3 3 0 0 0-2.547 1.42L4.22 3.624A1 1 0 0 1 5.78 2.376L8 5.152V2a1 1 0 0 1 1-1"/><path fill="#8da5f3" d="M9 6a2 2 0 1 1-1.73 3H1V7h6.27c.345-.597.99-1 1.73-1"/></svg>