<svg xmlns="http://www.w3.org/2000/svg" width="16" height="16" fill="none" viewBox="0 0 16 16"><path fill="#8da5f3" d="M7.542 1.014A7 7 0 0 1 14 4.396V3a1.001 1.001 0 0 1 2 0v4a1 1 0 0 1-1 1h-1.933c.32-.905-.312-2-1.419-2h.933a5 5 0 0 0-1.67-2.065l-.099-.068.158-.625a1 1 0 0 0-1.62-1.001l-.91.78a5.002 5.002 0 0 0-5.436 4.808c-.283.556-.165 1.225.226 1.672a5 5 0 0 0 1.956 2.63l-.156.627a1 1 0 0 0 1.62 1l.91-.779a5 5 0 0 0 4.77-2.48 1.001 1.001 0 0 1 1.732 1 7 7 0 0 1-8.312 3.13 7.005 7.005 0 0 1-4.69-7.543 7 7 0 0 1 6.482-6.072"/><path fill="#8da5f3" d="M9 7h2.648l.084.007a.5.5 0 0 1 .118.035l.026.01.035.022.022.014.012.008q.014.01.025.022.011.008.021.017a.5.5 0 0 1 .072.087l.016.025.018.034.011.025.012.033a.5.5 0 0 1 .024.106q.004.02.004.04v.028a.5.5 0 0 1-.061.227l-.01.019a.5.5 0 0 1-.104.12L6 13l.094-.378L7 9H4.35a.5.5 0 0 1-.325-.88l5.639-4.834L10 3z"/></svg>