<svg xmlns="http://www.w3.org/2000/svg" width="16" height="16" fill="none" viewBox="0 0 16 16"><path fill="#8da5f3" d="M6.939 5.01c.57.044 1.122.216 1.619.503.496.286.924.678 1.257 1.148l-1.63 1.157a2 2 0 0 0-.625-.573 1.793 1.793 0 0 0-1.564-.12c-.255.101-.49.26-.69.469L3.556 9.442c-.355.391-.56.924-.555 1.486.005.564.22 1.094.584 1.478.362.383.841.59 1.33.594a1.85 1.85 0 0 0 1.333-.562l.308-.325a1 1 0 0 1 1.452 1.375l-.315.332-.012.013A3.85 3.85 0 0 1 4.896 15a3.86 3.86 0 0 1-2.763-1.218A4.18 4.18 0 0 1 1 10.943a4.18 4.18 0 0 1 1.085-2.857l.012-.013 1.758-1.855a3.9 3.9 0 0 1 1.408-.953 3.8 3.8 0 0 1 1.676-.254"/><path fill="#8da5f3" d="M11.105 1a3.86 3.86 0 0 1 2.762 1.218A4.18 4.18 0 0 1 15 5.057a4.18 4.18 0 0 1-1.085 2.858l-.012.013-1.758 1.854a3.9 3.9 0 0 1-1.408.953 3.8 3.8 0 0 1-3.295-.247 4 4 0 0 1-1.257-1.15l1.63-1.156c.17.24.386.434.626.573a1.791 1.791 0 0 0 1.563.12c.255-.1.49-.26.69-.469l1.751-1.847c.355-.391.56-.924.555-1.486a2.18 2.18 0 0 0-.584-1.48A1.86 1.86 0 0 0 11.086 3a1.85 1.85 0 0 0-1.334.564l-.313.328a1 1 0 0 1-1.447-1.38l.319-.334.01-.01A3.85 3.85 0 0 1 11.104 1"/></svg>