<svg xmlns="http://www.w3.org/2000/svg" width="16" height="16" fill="none" viewBox="0 0 16 16"><path fill="#8da5f3" d="M13.684 10.052a1 1 0 0 1 .632 1.896L11.161 13l3.155 1.052a1 1 0 0 1-.632 1.896L8 14.054l-5.684 1.894a1 1 0 1 1-.632-1.896L4.839 13l-3.155-1.052a1 1 0 1 1 .632-1.896L8 11.946z"/><path fill="#8da5f3" d="M8 0a5 5 0 0 1 5 5v1.4a1.6 1.6 0 0 1-1 1.482V10h-2V8H9v2H7V8H6v2H4V7.882c-.586-.238-1-.81-1-1.482V5a5 5 0 0 1 5-5M5.5 3a1.5 1.5 0 1 0 0 3 1.5 1.5 0 0 0 0-3m5 0a1.5 1.5 0 1 0 0 3 1.5 1.5 0 0 0 0-3"/></svg>