<svg xmlns="http://www.w3.org/2000/svg" width="16" height="16" fill="none" viewBox="0 0 16 16"><path fill="#8da5f3" d="M10.071 3 13 5.929v4.142L10.071 13H5.93L3 10.071V5.93L5.929 3z"/><path fill="#8da5f3" d="M10.485 1a1 1 0 0 1 .707.293l3.515 3.515a1 1 0 0 1 .293.707v4.97a1 1 0 0 1-.293.707l-3.515 3.515a1 1 0 0 1-.707.293h-4.97a1 1 0 0 1-.707-.293l-3.515-3.515A1 1 0 0 1 1 10.485v-4.97a1 1 0 0 1 .293-.707l3.515-3.515A1 1 0 0 1 5.515 1zM5.93 2a1 1 0 0 0-.707.293L2.293 5.222l-.066.073A1 1 0 0 0 2 5.929v4.142l.005.099a1 1 0 0 0 .288.608l2.929 2.929a1 1 0 0 0 .608.288L5.93 14h4.142l.099-.005a1 1 0 0 0 .535-.222l.073-.066 2.929-2.929a1 1 0 0 0 .288-.608L14 10.07V5.93a1 1 0 0 0-.293-.707l-2.929-2.929a1 1 0 0 0-.608-.288L10.07 2z"/></svg>