<svg xmlns="http://www.w3.org/2000/svg" width="16" height="16" fill="none" viewBox="0 0 16 16"><path fill="#8da5f3" d="M9 12.5a2.5 2.5 0 0 1-5 0V12a1 1 0 1 1 2 0v.5a.5.5 0 0 0 1 0V9h2zM8 1a1 1 0 0 1 1 1v.072A7 7 0 0 1 15 9h-.315a2 2 0 0 0-.369-.414 2.4 2.4 0 0 0-.756-.434 2.68 2.68 0 0 0-1.787 0c-.282.1-.54.248-.756.434a2 2 0 0 0-.369.414h-.63a2 2 0 0 0-.368-.414 2.4 2.4 0 0 0-.757-.434 2.67 2.67 0 0 0-1.786 0c-.283.1-.54.248-.757.434A2 2 0 0 0 5.98 9h-.63a2 2 0 0 0-.368-.414 2.4 2.4 0 0 0-.756-.434 2.68 2.68 0 0 0-1.787 0c-.283.1-.54.248-.756.434A2 2 0 0 0 1.315 9H1a7 7 0 0 1 6-6.928V2a1 1 0 0 1 1-1"/></svg>