<svg xmlns="http://www.w3.org/2000/svg" width="16" height="16" fill="none" viewBox="0 0 16 16"><path fill="#c38ef1" d="M10.482 2.068a2 2 0 0 1 2.39 1.221l.06.188 1.766 5.57c.2.631.302 1.29.302 1.953l-.004.154a3 3 0 0 1-5.992 0L9 11v-1a1 1 0 0 0-2 0v1l-.004.154a3 3 0 0 1-5.992 0L1 11c0-.663.102-1.322.303-1.953L3.069 3.48l.06-.188a1.997 1.997 0 0 1 2.389-1.225A2 2 0 0 1 6.732 3c.177.305.264.65.265.996L7 4h2.002l.001-.003a2 2 0 0 1 1.48-1.929M4 9a2 2 0 1 0 0 4 2 2 0 0 0 0-4m8 0a2 2 0 1 0 0 4 2 2 0 0 0 0-4"/></svg>