<svg xmlns="http://www.w3.org/2000/svg" width="16" height="16" fill="none" viewBox="0 0 16 16"><path fill="#c38ef1" d="M13 7a2 2 0 1 1 0 4 2 2 0 1 1-2 2H8.809a.5.5 0 0 1-.448-.724l.637-1.271a.01.01 0 0 0 0-.01l-.637-1.271A.5.5 0 0 1 8.81 9H11a2 2 0 0 1 2-2M3 6a2 2 0 0 1 2 2h1.691a.5.5 0 0 1 .448.276l.859 1.72v.009l-.86 1.719a.5.5 0 0 1-.447.276H5a2 2 0 1 1-2-2 2 2 0 1 1 0-4M2.293 2.293a1 1 0 0 1 1.414 0l1 1a1 1 0 1 1-1.414 1.414l-1-1a1 1 0 0 1 0-1.414M12.293 2.293a1 1 0 1 1 1.414 1.414l-1 1a1 1 0 1 1-1.414-1.414zM8 0a1 1 0 0 1 1 1v2a1 1 0 0 1-2 0V1a1 1 0 0 1 1-1"/></svg>