<svg xmlns="http://www.w3.org/2000/svg" width="16" height="16" fill="none" viewBox="0 0 16 16"><path fill="#c38ef1" d="M8 1a7 7 0 1 1 0 14A7 7 0 0 1 8 1m-5.535 9.292a6 6 0 0 0 3.242 3.242l.571-1.377.573-1.386a3 3 0 0 1-1.622-1.623zm8.307-1.144a3 3 0 0 1-1.624 1.624l1.144 2.762a6 6 0 0 0 3.242-3.242zM8 6a2 2 0 1 0 0 4 2 2 0 0 0 0-4M5.707 2.465a6 6 0 0 0-3.242 3.242l1.378.571 1.385.573A3 3 0 0 1 6.85 5.228l-.573-1.385zm3.441 2.763a3 3 0 0 1 1.624 1.623l1.385-.573 1.377-.571a6 6 0 0 0-3.242-3.242z"/></svg>