<svg xmlns="http://www.w3.org/2000/svg" width="16" height="16" fill="none" viewBox="0 0 16 16"><path fill="#c38ef1" d="M14 13c0 1.105-2.239 2-5 2s-5-.895-5-2v-.363q.445.117.923.197a12.8 12.8 0 0 0 3.076.127q.49.037 1.001.039c1.475 0 2.857-.237 3.907-.657.395-.158.77-.354 1.093-.594zM2 8.749c.322.24.698.436 1.093.594C4.143 9.763 5.525 10 7 10q.51-.001 1-.04.496.04 1 .04c.708 0 1.413-.056 2.077-.166q.478-.08.923-.197V10c0 1.105-2.239 2-5 2s-5-.895-5-2zM14 7c0 1.105-2.239 2-5 2s-5-.895-5-2V5.749c.32.238.695.435 1.093.594a9 9 0 0 0 1.83.491C7.587 6.944 8.293 7 9 7c.708 0 1.413-.056 2.077-.166a9 9 0 0 0 1.83-.491c.398-.16.773-.356 1.093-.594z"/><path fill="#c38ef1" d="M9 2c2.761 0 5 .895 5 2 0 .262-.129.522-.38.766-.252.242-.62.462-1.085.648a8 8 0 0 1-1.622.434C10.306 5.948 9.656 6 9 6s-1.307-.052-1.913-.152a8 8 0 0 1-1.622-.434C5 5.228 4.632 5.008 4.38 4.766 4.129 4.522 4 4.262 4 4c0-1.105 2.239-2 5-2M8 5h2V3H8z"/></svg>