<svg xmlns="http://www.w3.org/2000/svg" width="16" height="16" fill="none" viewBox="0 0 16 16"><path fill="#c38ef1" d="M4.18 1.82a1.866 1.866 0 0 1 2.64 0l7.36 7.36c.73.73.73 1.91 0 2.64l-.964.964c-.8.8-1.774 1.402-2.847 1.76l-.639.213a.555.555 0 0 1-.567-.92L11.5 11.5a.707.707 0 0 0-1-1l-2.293 2.293a.707.707 0 0 1-1-1L9.5 9.5a.707.707 0 0 0-1-1l-2.293 2.293a.707.707 0 0 1-1-1L7.5 7.5a.707.707 0 0 0-1-1L4.207 8.793a.707.707 0 0 1-1-1L5.5 5.5a.707.707 0 0 0-1-1L2.163 6.838a.556.556 0 0 1-.92-.569l.213-.638a7.3 7.3 0 0 1 1.76-2.847z"/></svg>