<svg xmlns="http://www.w3.org/2000/svg" width="16" height="16" fill="none" viewBox="0 0 16 16"><path fill="#c38ef1" d="M8 15H4l4-2zm0-4-4 2v-2l4-2zM7 1.232 12.651 5H15v2h-1v3.087a1.5 1.5 0 1 1-2 1.413h1a.5.5 0 1 0 .6-.49l-.2-.02a.5.5 0 0 1-.4-.49V7H8L4 9V7H3v1H1V4h1.293L5 1.293V1h2zM3 4.707V5h2V2.707zM7 5h3.849L7 2.434z"/><path fill="#c38ef1" d="M8 15H4l4-2zM8 11l-4 2v-2l4-2z"/><path fill="#c38ef1" d="M7 1.232 12.651 5H15v2h-1v3.087a1.5 1.5 0 1 1-2 1.413h1a.5.5 0 1 0 .6-.49l-.2-.02a.5.5 0 0 1-.4-.49V7H8L4 9V7H3v1H1V4h1.293L5 1.293V1h2zM3 4.707V5h2V2.707zM7 5h3.849L7 2.434z"/></svg>