<svg xmlns="http://www.w3.org/2000/svg" width="16" height="16" fill="none" viewBox="0 0 16 16"><path fill="#c38ef1" d="M8 1a1 1 0 0 1 1 1v1q-.001.13-.034.249a2 2 0 0 1-.932 3.749L6 10.654a6 6 0 0 0 2 .346c.683 0 1.357-.12 1.997-.346L8.5 7.958a3 3 0 0 0 1.746-.975l1.5 2.7A6 6 0 0 0 13.196 8a1 1 0 0 1 1.732 1 8 8 0 0 1-2.2 2.451l1.146 2.064A1 1 0 0 1 14 14l.002 1h-1a1 1 0 0 1-.874-.515l-1.147-2.063A8 8 0 0 1 8 13a8 8 0 0 1-2.98-.578l-1.145 2.063A1 1 0 0 1 3 15L2 15v-1.01a1 1 0 0 1 .125-.475l1.146-2.064A8 8 0 0 1 1.072 9a1 1 0 1 1 1.732-1c.375.65.868 1.218 1.45 1.683l2.032-3.657a2 2 0 0 1 .747-2.777A1 1 0 0 1 7 3V2a1 1 0 0 1 1-1"/></svg>