<svg xmlns="http://www.w3.org/2000/svg" width="16" height="16" fill="none" viewBox="0 0 16 16"><path fill="#c38ef1" d="M8 7a1 1 0 0 1 1 1v2a7.12 7.12 0 0 1-1.479 4.342 5 5 0 0 1-.3.35l-.013.014a99 99 0 0 1-.708-.707l.707.707a1 1 0 1 1-1.414-1.414l.025-.028q.043-.046.13-.154A5.12 5.12 0 0 0 7 10V8a1 1 0 0 1 .999-1M10.106 11.552a1 1 0 0 1 1.789.895l-.5 1a1 1 0 0 1-1.79-.895z"/><path fill="#c38ef1" d="M8 4a4 4 0 0 1 4 4v1a1 1 0 1 1-2 0V8a2 2 0 0 0-4 0v1c0 1.839-1.033 3.909-3.062 4.898a1 1 0 0 1-.876-1.797C3.329 11.483 4 10.16 4 8.999V8a4 4 0 0 1 4-4"/><path fill="#c38ef1" d="M5.321 1.533a7 7 0 0 1 7.63 1.516 1.001 1.001 0 0 1-1.416 1.415 5 5 0 0 0-7.692.757A5 5 0 0 0 3 8a1 1 0 1 1-2 0 7 7 0 0 1 4.321-6.466M13.537 5.48a1 1 0 0 1 1.225.708A7 7 0 0 1 15 7.999a1 1 0 1 1-2 0c0-.436-.057-.872-.17-1.294a1 1 0 0 1 .707-1.224"/></svg>