<svg xmlns="http://www.w3.org/2000/svg" width="16" height="16" fill="none" viewBox="0 0 16 16"><path fill="#c38ef1" d="M6 9a1 1 0 0 1 1 1v4a1 1 0 1 1-2 0v-1.586l-2.293 2.293a1 1 0 1 1-1.414-1.414L3.586 11H2a1 1 0 1 1 0-2zM14 9a1 1 0 0 1 1 1v4a1 1 0 1 1-2 0v-1.586l-2.293 2.293a1 1 0 1 1-1.414-1.414L11.586 11H10a1 1 0 1 1 0-2zM6 1a1 1 0 0 1 1 1v4a1 1 0 0 1-2 0V4.414L2.707 6.707a1 1 0 1 1-1.414-1.414L3.586 3H2a1 1 0 0 1 0-2zM14 1a1 1 0 0 1 1 1v4a1 1 0 1 1-2 0V4.414l-2.293 2.293a1 1 0 1 1-1.414-1.414L11.586 3H10a1 1 0 1 1 0-2z"/></svg>