<svg xmlns="http://www.w3.org/2000/svg" width="16" height="16" fill="none" viewBox="0 0 16 16"><path fill="#c38ef1" d="M6.5 5a1.5 1.5 0 1 1 0 3 1.5 1.5 0 0 1 0-3"/><path fill="#c38ef1" d="M8.295 1c1.658 0 3.174.937 3.915 2.42L15 9v1h-2v3a1 1 0 0 1-1 1H8.514A5 5 0 0 1 7 13.763V15H3v-3.73A5.862 5.862 0 0 1 6.862 1zM6 2v1.035a3.5 3.5 0 0 0-1.597.661l-.731-.731-.707.707.731.731A3.5 3.5 0 0 0 3.036 6H2v1h1.036c.085.593.317 1.138.66 1.596l-.731.732.707.707.731-.732A3.5 3.5 0 0 0 6 9.963V11h1V9.964a3.5 3.5 0 0 0 1.596-.661l.732.732.707-.707-.732-.732A3.5 3.5 0 0 0 9.963 7H11V6H9.964a3.5 3.5 0 0 0-.661-1.597l.732-.731-.707-.707-.732.731A3.5 3.5 0 0 0 7 3.036V2z"/></svg>