<svg xmlns="http://www.w3.org/2000/svg" width="16" height="16" fill="none" viewBox="0 0 16 16"><path fill="#c38ef1" d="M10.361 10.485C11.354 10.94 12 11.672 12 12.5c0 1.38-1.79 2.5-4 2.5s-4-1.12-4-2.5c0-.828.645-1.56 1.638-2.015l.267.354c.454.593.886 1.16 1.268 1.723a1 1 0 0 0 1.654 0 39 39 0 0 1 1.268-1.723z"/><path fill="#c38ef1" d="M8 1c2.4 0 4 1.572 4 3.929 0 2.058-1.83 4.117-3.36 6.176A26 26 0 0 0 8 12c-.418-.616-.89-1.232-1.361-1.849C5.309 8.411 4 6.67 4 4.93 4 2.572 5.6 1 8 1m0 1.964c-.53 0-1.039.208-1.414.576A1.95 1.95 0 0 0 6 4.929c0 .52.21 1.02.586 1.388.375.369.884.576 1.414.576s1.039-.207 1.414-.576C9.79 5.95 10 5.45 10 4.93s-.211-1.02-.586-1.389A2.02 2.02 0 0 0 8 2.964"/></svg>