<svg xmlns="http://www.w3.org/2000/svg" width="16" height="16" fill="none" viewBox="0 0 16 16"><path fill="#c38ef1" d="M3.828 12.574A2 2 0 0 0 5.744 14H12a1 1 0 0 1-1 1H3a1 1 0 0 1-1-1V6.479z"/><path fill="#c38ef1" d="M10.5 1a.5.5 0 0 1 .5.5V3h.257a1 1 0 0 1 .957.713l2.4 8A1 1 0 0 1 13.656 13H5.744a1 1 0 0 1-.957-.713l-2.4-8A1 1 0 0 1 3.345 3H4V1.5a.5.5 0 0 1 1 0V3h2V1.5a.5.5 0 0 1 1 0V3h2V1.5a.5.5 0 0 1 .5-.5M6 9a.5.5 0 0 0 0 1h4a.5.5 0 0 0 0-1zm-.5-2a.5.5 0 0 0 0 1h3a.5.5 0 0 0 0-1zm5 0a.5.5 0 0 0 0 1h1a.5.5 0 0 0 0-1zM5 5a.5.5 0 0 0 0 1h6a.5.5 0 0 0 0-1z"/></svg>