<svg xmlns="http://www.w3.org/2000/svg" width="16" height="16" fill="none" viewBox="0 0 16 16"><path fill="#c38ef1" fill-rule="evenodd" d="M8 3c.9 0 1.745.239 2.474.655 2.186-.646 3.924-.574 4.454.345S14.652 6.46 13 8.03a5 5 0 0 1-7.473 4.314c-2.186.646-3.924.575-4.454-.344S1.347 9.54 3 7.969A5 5 0 0 1 8 3m4.696 1.134c-.262-.453-1.021-.561-2.053-.377.408.254.779.566 1.099.928-.008.016-.697 1.557-3.743 3.315-3.044 1.758-4.723 1.585-4.742 1.583a5 5 0 0 1-.255-1.414c-.674.801-.959 1.512-.698 1.965.553.956 3.326.389 6.195-1.268s4.749-3.776 4.197-4.732" clip-rule="evenodd"/></svg>