<svg xmlns="http://www.w3.org/2000/svg" width="16" height="16" fill="none" viewBox="0 0 16 16"><path fill="#c38ef1" d="M1 4.463a3 3 0 0 1 3.424-2.97L6 1.718v2.02l-1.858-.265A1 1 0 0 0 3 4.463v7.733a.808.808 0 0 0 1.592.196l.278-1.116.073-.246a3 3 0 0 1 2.838-2.026h1.805a3 3 0 0 1 1.901.68l.22.199.482.482A.476.476 0 0 0 13 10.03V5.605a1 1 0 0 0-.858-.989L11 4.452v-2.02l1.424.204A3 3 0 0 1 15 5.606v4.423l-.013.253a2.476 2.476 0 0 1-2.462 2.222l-.245-.012a2.48 2.48 0 0 1-1.323-.549l-.182-.164-.482-.482a1 1 0 0 0-.608-.288l-.1-.005H7.782c-.459 0-.86.313-.97.758l-.28 1.115a2.808 2.808 0 0 1-5.516-.394L1 12.196z"/><path fill="#c38ef1" d="M8 6H7V5h1zM10 6H9V5h1zM9 5H8V4h1zM8 4H7V3h1zM10 4H9V3h1zM9 3H8V2h1zM8 2H7V1h1zM10 2H9V1h1z"/></svg>