<svg xmlns="http://www.w3.org/2000/svg" width="16" height="16" fill="none" viewBox="0 0 16 16"><g fill="#c38ef1" clip-path="url(#a)"><path d="M8 9a1 1 0 0 1 1 1v1h3c.552 0 1.01.453.9.994a5 5 0 0 1-9.8 0c-.11-.541.348-.994.9-.994h3v-1a1 1 0 0 1 1-1M12.33 2.5a1 1 0 0 1 1.732 1 7 7 0 0 1-12.125 0 1 1 0 0 1 1.733-1 5 5 0 0 0 8.66 0"/><path d="M8.866.5a1 1 0 0 1 1.732 1 3 3 0 0 1-5.196 0 1 1 0 0 1 1.732-1A1 1 0 0 0 8.5.866c.152-.088.278-.214.366-.366"/></g><defs><clipPath id="a"><path fill="#fff" d="M0 0h16v16H0z"/></clipPath></defs></svg>