<svg xmlns="http://www.w3.org/2000/svg" width="16" height="16" fill="none" viewBox="0 0 16 16"><path fill="#c38ef1" d="M14.156 6.081q.177.074.344.169c.284.164.54.372.752.61.212.239.378.505.486.782.108.276.157.559.145.832a1.66 1.66 0 0 1-.218.758l-2.737-1.58a4.5 4.5 0 0 1-.007 1.742l-.474 2.37A4.03 4.03 0 0 1 9 14.968V12.86l1.158-.385a.5.5 0 0 0-.316-.95l-1.342.448-1.342-.448a.5.5 0 0 0-.316.95L8 12.86v2.108a4.025 4.025 0 0 1-3.447-3.204l-.475-2.37a4.5 4.5 0 0 1-.007-1.742l-2.736 1.58a1.66 1.66 0 0 1-.218-.758 2 2 0 0 1 .145-.832c.108-.277.273-.543.485-.782a3.06 3.06 0 0 1 1.096-.779 2.99 2.99 0 0 0 3.072.773 3.48 3.48 0 0 0 5.168 0 2.988 2.988 0 0 0 3.073-.772M5.5 8a.5.5 0 0 0-.5.5v2a.5.5 0 0 0 1 0v-2a.5.5 0 0 0-.5-.5m6 0a.5.5 0 0 0-.5.5v2a.5.5 0 0 0 1 0v-2a.5.5 0 0 0-.5-.5"/><path fill="#c38ef1" d="M8.5 1c.999 0 1.857.587 2.258 1.434a2 2 0 1 1 0 3.132A2.5 2.5 0 0 1 8.5 7c-1 0-1.859-.587-2.259-1.435a2 2 0 1 1 0-3.132A2.5 2.5 0 0 1 8.5 1"/></svg>