<svg xmlns="http://www.w3.org/2000/svg" width="16" height="16" fill="none" viewBox="0 0 16 16"><path fill="#c38ef1" d="M8 1a1 1 0 0 1 1 1v1h.5a.5.5 0 0 1 0 1H9v2.233l1.93-1.158-.216-.374a.5.5 0 0 1 .866-.5l.207.36.698-.418a1 1 0 0 1 1.03 1.714l-.727.436.292.506a.5.5 0 1 1-.866.5l-.284-.491L9.943 8l1.987 1.191.284-.49a.5.5 0 0 1 .866.5l-.292.505.727.437a1 1 0 0 1-1.03 1.714l-.698-.418-.207.36a.5.5 0 1 1-.866-.5l.216-.375L9 9.766V12h.5a.5.5 0 0 1 0 1H9v1a1 1 0 1 1-2 0v-1h-.5a.5.5 0 0 1 0-1H7V9.766l-1.93 1.158.216.375a.5.5 0 0 1-.866.5l-.208-.36-.697.418a1 1 0 0 1-1.03-1.714l.726-.437-.291-.505a.5.5 0 0 1 .866-.5l.283.49L6.056 8 4.069 6.808l-.283.49a.5.5 0 0 1-.866-.5l.29-.505-.725-.436a1 1 0 0 1 1.03-1.714l.697.418.208-.36a.5.5 0 1 1 .866.5l-.217.374L7 6.233V4h-.5a.5.5 0 0 1 0-1H7V2a1 1 0 0 1 1-1"/></svg>