<svg xmlns="http://www.w3.org/2000/svg" width="16" height="16" fill="none" viewBox="0 0 16 16"><path fill="#c38ef1" d="M12.84 10c.103.321.16.656.16 1 0 .768-.27 1.497-.743 2.11-.47.61-1.12 1.085-1.86 1.406S8.83 15 8 15s-1.657-.164-2.397-.484-1.39-.796-1.86-1.406a1 1 0 0 1 1.585-1.22c.233.302.593.585 1.07.79.475.206 1.028.32 1.602.32s1.127-.114 1.603-.32c.476-.205.836-.488 1.069-.79.23-.299.328-.605.328-.89s-.099-.591-.328-.89a2 2 0 0 0-.092-.11zM14 7a1 1 0 1 1 0 2H2a1 1 0 0 1 0-2zM8 1c.83 0 1.657.164 2.398.484.74.32 1.39.796 1.859 1.406a1 1 0 0 1-1.585 1.22c-.233-.302-.593-.584-1.07-.79A4.1 4.1 0 0 0 8 3c-.574 0-1.127.114-1.603.32s-.836.488-1.069.79C5.098 4.41 5 4.715 5 5s.099.591.328.89q.043.056.09.11H3.16A3.3 3.3 0 0 1 3 5c0-.768.27-1.497.743-2.11.47-.61 1.12-1.085 1.86-1.406A6.1 6.1 0 0 1 8 1"/></svg>