<svg xmlns="http://www.w3.org/2000/svg" width="16" height="16" fill="none" viewBox="0 0 16 16"><path fill="#c38ef1" d="m7.5 13.5-1 1-2-2-2.293 2.293a.708.708 0 0 1-1-1L3.5 11.5l-2-2 1-1zM14.5 9.5l-2 2 2.293 2.293a.708.708 0 0 1-1 1L11.5 12.5l-2 2-1-1 5-5zM15 4l-8.256 7.337-.687-.688 6.797-6.795a.5.5 0 1 0-.707-.708L5.35 9.942l-.688-.687L12 1h3zM9.943 10.65l-.687.687-.504-.448.758-.673zM11.338 9.255l-.688.687-.392-.392.75-.666zM7.331 4.747l-.883.993-2.594-2.594a.5.5 0 1 0-.708.708l2.636 2.635-.874.984L1 4V1h3z"/></svg>