<svg xmlns="http://www.w3.org/2000/svg" width="16" height="16" fill="none" viewBox="0 0 16 16"><path fill="#e0e0e0" d="M10.36 11.23a1 1 0 0 1 1.18 1.615 6 6 0 0 1-7.058.015 1 1 0 1 1 1.173-1.62 4 4 0 0 0 4.704-.01M8 2c.788 0 1.568.168 2.296.495s1.39.805 1.946 1.408c.557.604 1 1.321 1.301 2.11.139.363.431.65.8.77C15.384 7.118 16 7.54 16 8c0 1.105-3.582 2-8 2s-8-.895-8-2c0-.458.617-.88 1.655-1.217.37-.12.663-.407.802-.77a6.6 6.6 0 0 1 1.3-2.11 6 6 0 0 1 1.947-1.408A5.6 5.6 0 0 1 8 2m0 2a4 4 0 0 0-4 4c2.626.657 5.374.657 8 0a4 4 0 0 0-4-4"/></svg>