<svg xmlns="http://www.w3.org/2000/svg" width="16" height="16" fill="none" viewBox="0 0 16 16"><path fill="#e0e0e0" d="M13.726 4.364A1 1 0 0 1 15 5.325V8a4 4 0 0 1-6.828 2.828.243.243 0 0 0-.344 0A4.001 4.001 0 0 1 1 8V5.325a1 1 0 0 1 1.274-.96L6.077 5.45a7 7 0 0 0 3.846 0zM4.889 7.051c-1.33-.356-2.794.793-2.804.801 0 0 .693 1.74 2.026 2.097 1.329.356 2.792-.792 2.804-.802 0 0-.693-1.739-2.026-2.096m9.026.801c-.013-.01-1.476-1.157-2.804-.801-1.333.357-2.026 2.096-2.026 2.096.009.007 1.474 1.159 2.804.802 1.333-.357 2.026-2.096 2.026-2.096"/></svg>