<svg xmlns="http://www.w3.org/2000/svg" width="16" height="16" fill="none" viewBox="0 0 16 16"><path fill="#e0e0e0" d="M13 12.5c0 1.38-2.239 2.5-5 2.5s-5-1.12-5-2.5v-1.01c.298.261.644.485 1.018.672.555.277 1.19.487 1.866.627S7.279 13 8 13c.72 0 1.439-.07 2.116-.21a7.7 7.7 0 0 0 1.866-.628c.374-.187.72-.41 1.018-.672z"/><path fill="#e0e0e0" d="M13 9.5c0 .328-.13.653-.38.957-.252.303-.62.579-1.085.81a6.7 6.7 0 0 1-1.622.543A9.5 9.5 0 0 1 8 12a9.5 9.5 0 0 1-1.913-.19 6.7 6.7 0 0 1-1.622-.542c-.464-.232-.833-.508-1.084-.811S3 9.828 3 9.5V8.49c.298.261.644.485 1.018.672a7.7 7.7 0 0 0 1.866.627C6.56 9.93 7.279 10 8 10c.72 0 1.439-.07 2.116-.21a7.7 7.7 0 0 0 1.866-.628c.374-.187.72-.41 1.018-.672z"/><path fill="#e0e0e0" d="M13 6.5c0 .328-.13.654-.38.957-.252.303-.62.579-1.085.81a6.7 6.7 0 0 1-1.622.543A9.5 9.5 0 0 1 8 9a9.5 9.5 0 0 1-1.913-.19 6.7 6.7 0 0 1-1.622-.542C4 8.036 3.632 7.76 3.38 7.457S3 6.828 3 6.5V5.49c.298.261.644.485 1.018.672a7.7 7.7 0 0 0 1.866.627C6.56 6.93 7.279 7 8 7c.72 0 1.439-.07 2.116-.21a7.7 7.7 0 0 0 1.866-.628c.374-.187.72-.41 1.018-.672z"/><path fill="#e0e0e0" d="M8 1c2.761 0 5 1.12 5 2.5q0 .065-.007.128c-.029.284-.155.565-.374.829-.251.303-.62.579-1.084.81a6.7 6.7 0 0 1-1.622.543A9.5 9.5 0 0 1 8 6a9.5 9.5 0 0 1-1.913-.19 6.7 6.7 0 0 1-1.622-.542C4 5.036 3.632 4.76 3.38 4.457c-.219-.264-.345-.545-.374-.83A1 1 0 0 1 3 3.5C3 2.12 5.239 1 8 1"/></svg>