<svg xmlns="http://www.w3.org/2000/svg" width="16" height="16" fill="none" viewBox="0 0 16 16"><path fill="#e0e0e0" d="M5.586 2c.682 0 1.1.63.979 1.209a5 5 0 0 1 2.87.001c-.122-.579.297-1.21.98-1.21H14a1 1 0 0 1 1 1v3.586c0 .87-1.024 1.313-1.659.748l-1.187-1.188a.5.5 0 0 0-.707.708L13 8.407v.863A1.998 1.998 0 0 1 12 13h-1.175A3 3 0 0 1 8 15a3 3 0 0 1-2.826-2H4a2 2 0 0 1-1-3.73v-.863l1.554-1.553a.5.5 0 0 0-.707-.708L2.659 7.334C2.025 7.899 1 7.455 1 6.586V3a1 1 0 0 1 1-1zM8 11a1 1 0 1 0 0 2 1 1 0 0 0 0-2M5.5 8a.5.5 0 0 0-.5.5v2a.5.5 0 0 0 1 0v-2a.5.5 0 0 0-.5-.5m5 0a.5.5 0 0 0-.5.5v2a.5.5 0 0 0 1 0v-2a.5.5 0 0 0-.5-.5"/></svg>