<svg xmlns="http://www.w3.org/2000/svg" width="16" height="16" fill="none" viewBox="0 0 16 16"><g fill="#e0e0e0" clip-path="url(#a)"><path d="M8 8a1 1 0 0 1 .894.553l3 6a1 1 0 0 1-1.789.894l-.588-1.177-4.146 1.659a1.001 1.001 0 0 1-1.266-1.376l3-6 .072-.121A1 1 0 0 1 8 8m-.93 5.094 1.549-.62-.62-1.238zM8 4a3 3 0 0 1 2.598 1.5 1 1 0 1 1-1.732 1 1.002 1.002 0 0 0-1.732 0 1 1 0 0 1-1.732-1A3 3 0 0 1 8 4"/><path d="M8 0a7 7 0 0 1 6.062 3.5 1 1 0 0 1-1.732 1 5 5 0 0 0-8.66 0 1 1 0 0 1-1.733-1A7 7 0 0 1 8 0"/></g><defs><clipPath id="a"><path fill="#fff" d="M0 0h16v16H0z"/></clipPath></defs></svg>