<svg xmlns="http://www.w3.org/2000/svg" width="16" height="16" fill="none" viewBox="0 0 16 16"><path fill="#e0e0e0" d="M14.5 14a.5.5 0 1 1 0 1h-13a.5.5 0 0 1 0-1zM8 2.014c.294 0 .55.2.621.485L10 8l4.87-3.895a.48.48 0 0 1 .711.614L12.5 10H15c.369 0 .554.446.293.707L13 13h-2a3 3 0 0 0-6 0H3L.707 10.707A.414.414 0 0 1 1 10h3L2.377 6.754a.521.521 0 0 1 .754-.666L6 8l1.379-5.5A.64.64 0 0 1 8 2.013"/><path fill="#e0e0e0" d="M4.2 3.1a.5.5 0 0 1 .8.4v1a.5.5 0 0 1-.8.4l-.667-.5a.5.5 0 0 1 0-.8zM11 1.694a.5.5 0 0 1 .658-.475l1.574.525a.5.5 0 0 1 .196.828l-1.575 1.575A.5.5 0 0 1 11 3.793z"/></svg>