<svg xmlns="http://www.w3.org/2000/svg" width="16" height="16" fill="none" viewBox="0 0 16 16"><path fill="#e0e0e0" d="M7 4a3 3 0 0 0 3 3h3v6a2 2 0 0 1-2 2H8.964v-1.175c.35-.124.67-.309.947-.546l1.017.587 1-1.732-1.015-.587a3 3 0 0 0 0-1.095l1.016-.586-1-1.732-1.018.587a3 3 0 0 0-.947-.547V7h-2v1.174c-.35.124-.672.309-.948.546L5 8.134 4 9.866l1.015.586a3 3 0 0 0 0 1.095L4 12.134l1 1.732 1.016-.587c.277.237.597.422.948.546V15H5a2 2 0 0 1-2-2V3a2 2 0 0 1 2-2h2z"/><path fill="#e0e0e0" d="M7.964 10a1 1 0 1 1 0 2 1 1 0 0 1 0-2M13 6h-3a2 2 0 0 1-2-2V1z"/></svg>