<svg xmlns="http://www.w3.org/2000/svg" width="16" height="16" fill="none" viewBox="0 0 16 16"><path fill="#e0e0e0" d="M8 11c.939 0 1.829.067 2.644.18a9.4 9.4 0 0 1-.71 2.03c-.328.656-.691 1.121-1.041 1.411C8.55 14.905 8.248 15 8 15s-.55-.095-.893-.379c-.35-.29-.713-.755-1.04-1.411a9.4 9.4 0 0 1-.712-2.03C6.17 11.068 7.061 11 8 11M4.368 11.346c.198.858.47 1.642.804 2.311q.274.546.594.977a7 7 0 0 1-3.512-2.638q.204-.091.44-.18a11 11 0 0 1 1.674-.47M11.63 11.346c.626.128 1.19.287 1.676.47q.236.088.44.18a7 7 0 0 1-3.513 2.638q.32-.43.595-.977c.335-.67.605-1.453.803-2.311M1.74 4.866c.666.313 1.494.577 2.439.77A15.5 15.5 0 0 0 4 8c0 .803.06 1.6.179 2.363-.945.193-1.773.457-2.439.77A7 7 0 0 1 1 8c0-1.127.267-2.19.74-3.134M14.259 4.866C14.732 5.81 15 6.873 15 8s-.268 2.19-.741 3.133c-.666-.313-1.494-.577-2.439-.77a15.524 15.524 0 0 0 0-4.728c.945-.192 1.773-.456 2.439-.769M10.835 5.806C10.943 6.512 11 7.252 11 8s-.057 1.487-.165 2.193A20 20 0 0 0 8 10c-.999 0-1.955.068-2.836.193A14.5 14.5 0 0 1 5 8c0-.748.056-1.488.164-2.194A20 20 0 0 0 8 6c.998 0 1.954-.07 2.835-.194M8 1c.248 0 .55.095.893.379.35.29.713.755 1.04 1.411.287.573.53 1.259.71 2.028a19.2 19.2 0 0 1-5.288 0c.182-.77.425-1.455.711-2.028.328-.656.691-1.121 1.041-1.411C7.45 1.095 7.752 1 8 1M5.766 1.365a6.6 6.6 0 0 0-.594.978c-.335.67-.606 1.452-.804 2.31a11 11 0 0 1-1.674-.468 7 7 0 0 1-.44-.182 7 7 0 0 1 3.512-2.638M10.233 1.365a7 7 0 0 1 3.512 2.638 7 7 0 0 1-.44.182c-.485.182-1.049.34-1.674.468a10.4 10.4 0 0 0-.803-2.31 6.6 6.6 0 0 0-.595-.978"/></svg>