<svg xmlns="http://www.w3.org/2000/svg" width="16" height="16" fill="none" viewBox="0 0 16 16"><path fill="#e0e0e0" d="M2.793 1.02c3.36.153 6.775 1.294 9.625 3.767C13.508 5.733 14 7.166 14 8.61a5.37 5.37 0 0 1-1.066 3.216l.94 1.69a1 1 0 0 1-1.749.97l-.708-1.275c-.817.5-1.78.79-2.808.79h-.243c-3.03 0-5.379-2.396-5.232-5.421.113-2.303.077-4.58-.818-6.852-.135-.342.11-.726.476-.709m1.905 1.52a.5.5 0 0 0-.395.92c1.635.701 3.155 2.164 4.36 3.777 1.202 1.61 2.044 3.307 2.357 4.401a.5.5 0 0 0 .96-.275c-.353-1.24-1.262-3.043-2.517-4.724-1.253-1.678-2.9-3.299-4.765-4.098"/></svg>