<svg xmlns="http://www.w3.org/2000/svg" width="16" height="16" fill="none" viewBox="0 0 16 16"><path fill="#e0e0e0" d="M2.988 9a2.012 2.012 0 0 1 1.488 3.366L3.446 13.5h.804a.75.75 0 0 1 0 1.5h-2.5a.75.75 0 0 1-.555-1.255l2.172-2.388a.514.514 0 0 0-.379-.857h-.04a.55.55 0 0 0-.46.246l-.114.17a.75.75 0 0 1-1.248-.832l.113-.17A2.05 2.05 0 0 1 2.947 9zM14 12a1 1 0 1 1 0 2H7a1 1 0 0 1 0-2zM14 7a1 1 0 1 1 0 2H7a1 1 0 0 1 0-2zM2.77 1.174A.75.75 0 0 1 4 1.75V6a.75.75 0 0 1-1.5 0V3.352l-.27.224a.751.751 0 0 1-.96-1.152zM14 2a1 1 0 1 1 0 2H7a1 1 0 0 1 0-2z"/></svg>