<svg xmlns="http://www.w3.org/2000/svg" width="16" height="16" fill="none" viewBox="0 0 16 16"><path fill="#e0e0e0" d="M6.293 6a.707.707 0 0 1 .5 1.207L5 9l2 2 1.793-1.793a.707.707 0 0 1 1 1L8 12l.793.793a.707.707 0 0 1-1 1L7.5 13.5l-.465.465a3.536 3.536 0 0 1-4.45.448l-.378.38a.708.708 0 0 1-1-1l.379-.38a3.536 3.536 0 0 1 .45-4.448L2.5 8.5l-.293-.293a.707.707 0 0 1 1-1L4 8l1.793-1.793a.7.7 0 0 1 .5-.207M14.293 1a.707.707 0 0 1 .5 1.207l-.38.379a3.536 3.536 0 0 1-.448 4.45L13.5 7.5l.293.293a.708.708 0 0 1-1 1L7.207 3.207a.707.707 0 0 1 1-1L8.5 2.5l.465-.465a3.536 3.536 0 0 1 4.448-.45l.38-.378a.7.7 0 0 1 .5-.207"/></svg>