<svg xmlns="http://www.w3.org/2000/svg" width="16" height="16" fill="none" viewBox="0 0 16 16"><path fill="#e0e0e0" d="M6 6c0 .672.332 1.264.84 1.627l-.819 2.73a.5.5 0 1 0 .958.287l.795-2.659Q7.886 8 8 8q.2 0 .389-.039l.643 1.715a.5.5 0 0 0 .936-.352l-.675-1.8C9.725 7.156 10 6.61 10 6h1.315A5.99 5.99 0 0 1 14 11c0 3.314-2.686 4-6 4s-6-.686-6-4a5.99 5.99 0 0 1 2.685-5zM5.729 1.636a5.08 5.08 0 0 1 4.542 0c.426.213.647.692.532 1.154L10.25 5h-.52a1.998 1.998 0 0 0-3.46 0h-.521l-.552-2.21a1.016 1.016 0 0 1 .532-1.154"/></svg>