<svg xmlns="http://www.w3.org/2000/svg" width="16" height="16" fill="none" viewBox="0 0 16 16"><path fill="#e0e0e0" d="M7.355 7A4 4 0 0 0 6 10a4 4 0 0 0 1.355 3H4v2H2v-2a1 1 0 0 1-1-1V8a1 1 0 0 1 1-1zM14 7a1 1 0 0 1 1 1v4a1 1 0 0 1-1 1v2h-2v-1.537A3.997 3.997 0 0 0 12.645 7z"/><path fill="#e0e0e0" d="M10 7a3 3 0 1 1 0 6 3 3 0 0 1 0-6M5.293 3.293a1 1 0 0 1 1.414 0l1 1a1 1 0 1 1-1.414 1.414l-1-1a1 1 0 0 1 0-1.414M13.293 3.293a1 1 0 1 1 1.414 1.414l-1 1a1 1 0 1 1-1.414-1.414zM10 1a1 1 0 0 1 1 1v2a1 1 0 1 1-2 0V2a1 1 0 0 1 1-1"/></svg>