<svg xmlns="http://www.w3.org/2000/svg" width="16" height="16" fill="none" viewBox="0 0 16 16"><g fill="#e0e0e0" clip-path="url(#a)"><path d="M1.205 7.447a1 1 0 0 1 1.932.518 4 4 0 0 0 4.899 4.898 1 1 0 0 1 .517 1.933 6.002 6.002 0 0 1-7.348-7.349M16 10l-3 3-2.793-2.793 3-3z"/><path d="M4.103 8.224a1 1 0 0 1 1.932.517 1 1 0 0 0 1.224 1.225 1 1 0 0 1 .518 1.932 3 3 0 0 1-3.674-2.122 3 3 0 0 1 0-1.552M10.793 2.207c.39-.39 1.024-.39 1.415 0l1.585 1.586a1 1 0 0 1 0 1.414l-3.585 3.586c-.391.39-1.025.39-1.416 0L7.207 7.207a1 1 0 0 1 0-1.414zM8.793 2.793l-3 3L3 3l3-3z"/></g><defs><clipPath id="a"><path fill="#fff" d="M0 0h16v16H0z"/></clipPath></defs></svg>