<svg xmlns="http://www.w3.org/2000/svg" width="16" height="16" fill="none" viewBox="0 0 16 16"><path fill="#e0e0e0" d="M4.75 6.25a1.06 1.06 0 0 1 1.5 0l1.867 1.867 3.309-1.378a1 1 0 0 1 1.043.171l1.923 1.682a2 2 0 0 1 .096 2.92L12.44 13.56a1.5 1.5 0 0 1-.43.298 1 1 0 0 1-.51.142H8a1 1 0 1 1 0-2h1L4.75 7.75a1.06 1.06 0 0 1 0-1.5M2 6a1 1 0 0 1 0 2H1a1 1 0 0 1 0-2zM1.293 2.293a1 1 0 0 1 1.414 0l1 1a1 1 0 1 1-1.414 1.414l-1-1a1 1 0 0 1 0-1.414M6 1a1 1 0 0 1 1 1v1a1 1 0 0 1-2 0V2a1 1 0 0 1 1-1"/></svg>