<svg width="128" height="128" viewBox="0 0 128 128" fill="none" xmlns="http://www.w3.org/2000/svg">
<rect x="0.5" y="0.5" width="127" height="127" stroke="black"/>
<path d="M106.5 65.5C106.5 88.9721 87.3115 103.5 64.2475 103.5C41.1834 103.5 19.5385 88.9721 19.5385 65.5C15.6666 35.2337 41.1608 13.0533 68 18.5C91.0641 18.5 106.5 42.0279 106.5 65.5Z" fill="#C7BB96" stroke="black" stroke-width="2" stroke-linejoin="round"/>
<path d="M110 61.5C110 83.8675 91.8675 102 69.5 102C47.1325 102 29 83.8675 29 61.5C29 39.1325 47.1325 21 69.5 21C91.8675 21 110 39.1325 110 61.5Z" fill="#DE4848" stroke="black" stroke-width="2" stroke-linejoin="round"/>
<path d="M21 78L37 85" stroke="black"/>
<path d="M19 66L30 71" stroke="black"/>
<path d="M19 54L30 58" stroke="black"/>
<path d="M28 88L45 94" stroke="black"/>
<path d="M23 41L33 43" stroke="black"/>
<path d="M33 94L64 103" stroke="black"/>
<path d="M29 30L43 32" stroke="black"/>
<path d="M44 21L56 23" stroke="black"/>
<path d="M63 17.5L72.5 21" stroke="black"/>
<path d="M60.8574 70.8446C60.7274 70.9006 59.8758 71.5007 58.8149 72.6319C58.2634 73.2199 57.4264 74.3898 56.7728 75.3305C55.6526 76.9428 54.9197 78.766 54.2928 80.4484C54.0532 81.0916 54.0063 81.3195 54.0005 81.4902C53.9946 81.6609 54.0397 81.7706 54.2386 81.8323C55.2688 82.1523 57.0752 80.7807 58.36 79.7123C59.4354 78.8181 60.4575 77.3376 61.6745 75.747C62.3871 74.8555 63.2925 73.7928 63.817 73.1585C64.3416 72.5241 64.4578 72.3503 64.6925 71.996" stroke="black" stroke-width="2" stroke-linecap="round" stroke-linejoin="round"/>
<path d="M65.097 71.4725C65.2621 71.5314 65.8615 71.7978 67.0696 72.5159C67.8991 73.0089 68.9634 73.3672 71.9499 74.3882C72.556 74.5955 72.6871 74.5609 72.8034 74.5076C73.0405 74.3986 73.2038 74.1839 73.2756 73.9823C73.474 73.4248 72.5152 73.059 71.8232 72.4995C70.8735 71.7316 70.4577 71.3065 69.9499 70.8546C68.8194 70.1649 68.3706 69.8838 68.0305 69.6195C67.796 69.4343 67.4358 69.1454 66.998 68.8315" stroke="black" stroke-width="2" stroke-linecap="round" stroke-linejoin="round"/>
<path d="M61.2978 70.0287C61.2978 70.0203 60.3325 69.0762 58.7214 67.4646C57.2486 65.9914 57.0092 64.8581 56.7485 63.7324C56.5789 63.0001 56.486 62.6201 56.5569 62.3786C56.7084 61.8618 57.534 61.8664 58.0677 61.8683C58.6395 61.8704 59.5936 62.5651 60.4361 63.0167C61.7108 63.7001 62.438 64.5287 63.1641 65.076C63.2929 65.1877 63.4116 65.3028 63.518 65.4168C63.6244 65.5307 63.7149 65.6401 63.8081 65.7528" stroke="black" stroke-width="2" stroke-linecap="round" stroke-linejoin="round"/>
<path d="M63.8081 65.7528C63.8142 65.6159 64.1138 64.3522 64.6784 62.5338C64.9312 61.7197 65.2153 61.1587 66.6411 58.8526C68.0669 56.5465 70.6512 52.5205 72.2734 50.1222C73.8956 47.7238 74.4774 47.075 74.8669 46.6719C75.4126 46.1072 76.7886 45.3636 78.6787 44.3736C79.6437 43.9243 80.0211 43.783 80.3139 43.6316C80.479 43.5341 80.6777 43.3948 81.1548 43.0478" stroke="black" stroke-width="2" stroke-linecap="round" stroke-linejoin="round"/>
<path d="M66.7524 68.3924C66.9321 68.3581 68.2242 67.4978 70.7865 64.5306C72.5557 62.4817 74.633 58.8152 76.1725 56.5058C77.712 54.1965 78.4861 53.2238 79.2512 52.1101C80.0162 50.9963 80.7487 49.7708 81.3445 48.443C82.5359 45.7875 82.8876 43.9658 82.9874 43.2264C83.0384 41.4706 82.9275 40.7447 82.777 40.5463C82.6892 40.4499 82.5783 40.3623 82.2217 40.1653" stroke="black" stroke-width="2" stroke-linecap="round" stroke-linejoin="round"/>
<path d="M77.9044 47.5503C77.9044 47.5761 77.8948 47.8318 77.4797 49.045C77.1392 50.0404 76.2731 51.7076 75.2132 53.5451C74.1532 55.3826 72.8587 57.3144 72.0686 58.4216C71.0318 59.7528 69.8652 60.7141 68.4282 61.8565C67.9036 62.2682 67.7946 62.3391 67.6645 62.4416" stroke="black" stroke-width="2" stroke-linecap="round" stroke-linejoin="round"/>
<path d="M79.6705 43.9459C79.6945 43.8146 80.792 42.1911 81.7899 40.9767C81.9432 40.8087 82.0929 40.645 82.2467 40.4937C82.4005 40.3423 82.5539 40.2084 82.8378 40" stroke="black" stroke-width="2" stroke-linecap="round" stroke-linejoin="round"/>
</svg>
