<svg width="128" height="128" viewBox="0 0 128 128" fill="none" xmlns="http://www.w3.org/2000/svg">
<rect x="0.5" y="0.5" width="127" height="127" stroke="black"/>
<path d="M106.5 69C106.5 92.4721 87.3115 107 64.2475 107C41.1834 107 19.5385 92.4721 19.5385 69C15.6666 38.7337 41.1608 16.5533 68 22C91.0641 22 106.5 45.5279 106.5 69Z" fill="#ADADAD" stroke="black" stroke-width="2" stroke-linejoin="round"/>
<path d="M110 65C110 87.3675 91.8675 105.5 69.5 105.5C47.1325 105.5 29 87.3675 29 65C29 42.6325 47.1325 24.5 69.5 24.5C91.8675 24.5 110 42.6325 110 65Z" fill="#568BD5" stroke="black" stroke-width="2" stroke-linejoin="round"/>
<path d="M21 81.5L37 88.5" stroke="black"/>
<path d="M19 69.5L30 74.5" stroke="black"/>
<path d="M19 57.5L30 61.5" stroke="black"/>
<path d="M28 91.5L45 97.5" stroke="black"/>
<path d="M23 44.5L33 46.5" stroke="black"/>
<path d="M33 97.5L64 106.5" stroke="black"/>
<path d="M29 33.5L43 35.5" stroke="black"/>
<path d="M44 24.5L56 26.5" stroke="black"/>
<path d="M63 21L72.5 24.5" stroke="black"/>
<path d="M47 50C47 50.0359 47.018 52.9389 47.0973 57.6691C47.1637 61.6379 48.3114 65.2342 48.9987 69.1902C49.2902 70.8677 49.8438 71.8317 51.2705 74.3076C54.187 79.3694 58.1615 82.8642 59.0015 83.892C59.7047 84.7524 61.8528 86.6277 64.0577 88.271C65.6502 89.4579 66.9443 90.4425 67.7851 91.0923C67.9819 91.2604 68.1636 91.4344 68.3643 91.5878C68.5651 91.7411 68.7793 91.8686 69 92" stroke="black" stroke-width="2" stroke-linecap="round" stroke-linejoin="round"/>
<path d="M91 50C91 50.0359 90.982 52.9389 90.9027 57.6691C90.8363 61.6379 89.6886 65.2342 89.0013 69.1902C88.7098 70.8677 88.1562 71.8317 86.7295 74.3076C83.813 79.3694 79.8385 82.8642 78.9985 83.892C78.2953 84.7524 76.1472 86.6277 73.9423 88.271C72.3498 89.4579 71.0557 90.4425 70.2149 91.0923C70.0181 91.2604 69.8364 91.4344 69.6357 91.5878C69.4349 91.7411 69.2207 91.8686 69 92" stroke="black" stroke-width="2" stroke-linecap="round" stroke-linejoin="round"/>
<path d="M47 48.9827C47.1968 48.8077 48.0201 48.2715 49.5651 47.6681C50.9289 47.1355 51.9702 46.6639 53.4448 46.1631C55.2036 45.5658 57.0013 45.3629 58.6028 45.0749C60.0344 44.8175 61.1381 44.6909 62.2145 44.5752C63.326 44.4558 64.5604 44.3216 66.7594 44.1665C72.8143 43.7394 73.9502 44.2343 75.5904 44.5299C77.6887 44.908 80.3906 45.6658 82.0164 46.0865C85.0679 46.8761 86.4588 47.2034 87.6479 47.6618C88.8626 48.1131 89.812 48.4299 90.2979 48.6529C90.5382 48.7666 90.7656 48.8816 91 49" stroke="black" stroke-width="2" stroke-linecap="round" stroke-linejoin="round"/>
<path d="M69 55C69 55.0346 69 55.3948 69 59.6348C69 63.5323 69 70.9746 69 75.3103C69 79.6461 69 80.6498 69 82" stroke="black" stroke-width="2" stroke-linecap="round" stroke-linejoin="round"/>
<path d="M80 55C79.9274 55.6379 79.0841 59.3043 78.3456 61.2756C77.406 62.611 76.1567 64.0009 75.2217 64.8648C74.9706 65.1056 74.6888 65.401 74 66" stroke="black" stroke-width="2" stroke-linecap="round" stroke-linejoin="round"/>
<path d="M58 55C58.0726 55.6379 58.9159 59.3043 59.6544 61.2756C60.594 62.611 61.8433 64.0009 62.7783 64.8648C63.0294 65.1056 63.3112 65.401 64 66" stroke="black" stroke-width="2" stroke-linecap="round" stroke-linejoin="round"/>
</svg>
