<svg xmlns="http://www.w3.org/2000/svg" width="16" height="16" fill="none" viewBox="0 0 16 16"><path fill="#8eef97" d="M11.293 1.293a1 1 0 0 1 1.414 0l2 2a1 1 0 0 1 0 1.414l-2 2a1 1 0 0 1-1.414-1.414L11.586 5H9.554L7.679 8l1.875 3h2.032l-.293-.293a1 1 0 1 1 1.414-1.414l2 2a1 1 0 0 1 0 1.414l-2 2a1 1 0 1 1-1.414-1.414l.293-.293H9a1 1 0 0 1-.848-.47L6.5 9.886 4.848 12.53A1 1 0 0 1 4 13H2a1 1 0 0 1 0-2h1.446L5.32 8 3.446 5H2a1 1 0 0 1 0-2h2l.128.008a1 1 0 0 1 .72.462L6.5 6.113 8.152 3.47l.075-.104A1 1 0 0 1 9 3h2.586l-.293-.293a1 1 0 0 1 0-1.414"/></svg>