<svg xmlns="http://www.w3.org/2000/svg" width="16" height="16" fill="none" viewBox="0 0 16 16"><path fill="#8eef97" d="M8 1c3 0 6 4.134 6 8s-2.686 6-6 6q-.315-.001-.621-.026l-.1-.01a7 7 0 0 1-.517-.07l-.087-.016a7 7 0 0 1-.229-.046l-.038-.009a6 6 0 0 1-.259-.065l-.02-.006c-2.318-.641-4.014-2.52-4.123-5.45A7 7 0 0 1 2 9c0-3.866 3-8 6-8m-.299 9.38c-.5-1.866-2.203-3.032-3.804-2.604-.31.084-.593.221-.845.402Q3.002 8.59 3 9c0 1.688.579 2.913 1.44 3.72.63.59 1.455.994 2.409 1.174.844-.804 1.216-2.156.852-3.513m4.392-4.979a1.2 1.2 0 0 0-.644-.012c-.8.214-1.217 1.252-.931 2.319.285 1.067 1.166 1.758 1.966 1.544.197-.053.369-.156.514-.296-.008-1.198-.346-2.446-.905-3.555M9.495 2.447c-.225-.065-.445-.053-.629.053-.478.276-.53 1.081-.116 1.799.414.717 1.138 1.075 1.616.799.478-.277.53-1.082.116-1.8a2 2 0 0 0-.195-.282 5 5 0 0 0-.792-.569"/></svg>