<svg xmlns="http://www.w3.org/2000/svg" width="16" height="16" fill="none" viewBox="0 0 16 16"><path fill="#8eef97" d="M5.643 9.851A2.99 2.99 0 0 0 8.68 10.92c-.61 1.435-1.923 3.3-4.255 4.012a.77.77 0 0 1-.475 0c-1.18-.41-2.278-1.817-2.46-3.43-.064-.578.508-.965 1.09-.96a6.9 6.9 0 0 0 3.062-.69M10.942 7.414c1.441.615 3.274 1.903 3.986 4.156a.76.76 0 0 1 0 .487c-.421 1.161-1.847 2.241-3.48 2.419-.581.062-.971-.515-.967-1.1a6.65 6.65 0 0 0-.69-2.976 2.99 2.99 0 0 0 1.15-2.986M8 6a2 2 0 1 1 0 4 2 2 0 0 1 0-4M4.551 1.524c.582-.063.971.515.967 1.1-.006.842.16 1.91.688 2.974a2.99 2.99 0 0 0-1.149 2.987C3.616 7.97 1.784 6.682 1.072 4.43a.76.76 0 0 1 0-.488c.421-1.16 1.847-2.24 3.48-2.418M11.573 1.068a.77.77 0 0 1 .475 0c1.18.41 2.278 1.818 2.46 3.43.065.579-.507.966-1.089.96a6.9 6.9 0 0 0-3.063.69A2.99 2.99 0 0 0 7.318 5.08c.61-1.435 1.924-3.298 4.255-4.012"/></svg>