<svg xmlns="http://www.w3.org/2000/svg" width="16" height="16" fill="none" viewBox="0 0 16 16"><path fill="#8eef97" d="M5 2a1 1 0 0 1 0 2h-.28l-1 3h8.56l-1-3H11a1 1 0 1 1 0-2h1a1 1 0 0 1 .948.684l1.693 5.076c.238.715.359 1.47.359 2.22 0 2.2-1.782 4.02-4 4.02a3.99 3.99 0 0 1-3-1.356A3.99 3.99 0 0 1 5 14h-.404A3.596 3.596 0 0 1 1 10.404c0-1.037.167-2.068.495-3.052l1.557-4.668.061-.147A1 1 0 0 1 4 2zM3.132 9A7.7 7.7 0 0 0 3 10.404C3 11.286 3.714 12 4.596 12H5a2 2 0 0 0 2-2V9zM9 9v1a2 2 0 0 0 2 2c1.096 0 2-.906 2-2.02 0-.328-.033-.658-.097-.98z"/></svg>