<svg xmlns="http://www.w3.org/2000/svg" width="16" height="16" fill="none" viewBox="0 0 16 16"><path fill="#8eef97" d="M10.787 4.212c.136.399.213.833.213 1.288C11 7.433 9.657 9 8 9a2.67 2.67 0 0 1-1.519-.482zM8.854 2.145c.56.193 1.051.573 1.422 1.078L5.723 7.776a3.8 3.8 0 0 1-.696-1.804z"/><path fill="#8eef97" d="M8 0c2.761 0 5 2.462 5 5.5 0 2.254-1.233 4.191-2.998 5.04-.468.225-.794.707-.709 1.219l.378 2.268a1.694 1.694 0 1 1-3.342 0l.378-2.268c.085-.512-.242-.994-.709-1.219C4.233 9.69 3 7.754 3 5.5 3 2.462 5.239 0 8 0m0 1C5.878 1 4 2.923 4 5.5S5.878 10 8 10s4-1.923 4-4.5S10.122 1 8 1"/></svg>