<svg xmlns="http://www.w3.org/2000/svg" width="16" height="16" fill="none" viewBox="0 0 16 16"><path fill="#8eef97" d="M12 9a1 1 0 1 1 0 2c-1.112 0-1.726.22-2.122.47-.417.264-.693.616-1.078 1.13-.365.486-.84 1.134-1.61 1.62-.791.5-1.802.78-3.19.78a1 1 0 1 1 0-2c1.112 0 1.726-.22 2.122-.47.417-.264.693-.616 1.078-1.13.365-.486.839-1.134 1.61-1.62C9.6 9.28 10.612 9 12 9M3.5 5C4.88 5 6 6.14 6 7.546S3.5 12 3.5 12 1 8.952 1 7.546 2.12 5 3.5 5m0 1.5a1 1 0 1 0 0 2 1 1 0 0 0 0-2M12.5 1C13.88 1 15 2.14 15 3.546S12.5 8 12.5 8 10 4.952 10 3.546 11.12 1 12.5 1m0 1.5a1 1 0 1 0 0 2 1 1 0 0 0 0-2"/></svg>