<svg xmlns="http://www.w3.org/2000/svg" width="16" height="16" fill="none" viewBox="0 0 16 16"><path fill="#8eef97" d="M14.667 10.558a.5.5 0 0 1 0 .883L8.43 14.75a1 1 0 0 1-.941-.002L1.322 11.44a.5.5 0 0 1 0-.88l.917-.493 4.778 2.562a2 2 0 0 0 1.882.004l4.84-2.568z"/><path fill="#8eef97" d="M14.667 7.558a.5.5 0 0 1 0 .883L8.43 11.75a1 1 0 0 1-.585.109h-.008l-.119-.023a1 1 0 0 1-.23-.088L1.323 8.44a.5.5 0 0 1 0-.88l.917-.493 4.778 2.562a2 2 0 0 0 1.882.004l4.84-2.568z"/><path fill="#8eef97" d="M7.489 1.253a1 1 0 0 1 .941-.003l6.237 3.308a.5.5 0 0 1 0 .884L8.43 8.751a1 1 0 0 1-.593.108l-.119-.023a1 1 0 0 1-.23-.088L1.323 5.44a.5.5 0 0 1 0-.882z"/></svg>