<svg xmlns="http://www.w3.org/2000/svg" width="16" height="16" fill="none" viewBox="0 0 16 16"><path fill="#8eef97" d="M11.504 8.632a1 1 0 0 1 1.364.372l2 3.5A1 1 0 0 1 14 14h-3.5v1a.5.5 0 0 1-.854.354l-2-2a.5.5 0 0 1 0-.707l2-2A.5.5 0 0 1 10.5 11v1h1.777l-1.145-2.004a1 1 0 0 1 .372-1.364M4.602 7.517a.5.5 0 0 1 .613.353l.732 2.732a.5.5 0 0 1-.733.563l-.763-.44L3.723 12H6a1 1 0 1 1 0 2H2a1 1 0 0 1-.868-1.496l1.588-2.78-.97-.559a.5.5 0 0 1 .121-.916zM8 2a1 1 0 0 1 .868.504l1.468 2.57.878-.507a.5.5 0 0 1 .733.563l-.732 2.731a.5.5 0 0 1-.613.354l-2.731-.732a.502.502 0 0 1-.121-.916l.854-.494L8 5.015 6.868 6.996a1 1 0 1 1-1.736-.992l2-3.5.073-.111A1 1 0 0 1 8 2"/></svg>