<svg xmlns="http://www.w3.org/2000/svg" width="16" height="16" fill="none" viewBox="0 0 16 16"><path fill="#8eef97" d="M10.48 9.297a1 1 0 0 1 1.027.02l2.54 1.587a1 1 0 0 1 .25 1.473l-.996 1.248a1 1 0 0 1-.781.375H9.618a1 1 0 0 1-.894-.553l-.801-1.6a1 1 0 0 1 .398-1.316z"/><path fill="#8eef97" d="M8.726 2.08a1 1 0 0 1 .945.407l3.887 5.398a1 1 0 0 1-.03 1.207l-.164.206-1.327-.83a2 2 0 0 0-2.053-.04L7.825 9.662A2 2 0 0 0 6.912 12H3.74a1 1 0 0 1-.94-.656L1.215 7.008a1 1 0 0 1 .219-1.037l2.965-3.087a1 1 0 0 1 .587-.3z"/></svg>