<svg xmlns="http://www.w3.org/2000/svg" width="16" height="16" fill="none" viewBox="0 0 16 16"><path fill="#8eef97" d="M15 14.5a.5.5 0 0 1-.5.5h-13a.5.5 0 0 1-.5-.5v-3c.484 0 .983.138 1.502.435 1.32.754 2.676.754 3.996 0 1.013-.58 1.991-.58 3.004 0 1.32.754 2.676.754 3.996 0 .52-.297 1.018-.435 1.502-.435z"/><path fill="#8eef97" d="M15 10.5c-.683 0-1.35.196-1.998.565-1.013.58-1.991.58-3.004 0-1.32-.754-2.676-.754-3.996 0-1.013.58-1.991.58-3.004 0-.647-.37-1.315-.565-1.998-.565v-4c.484 0 .983.138 1.502.435 1.32.754 2.676.754 3.996 0 1.013-.58 1.991-.58 3.004 0 1.32.754 2.676.754 3.996 0 .52-.297 1.018-.435 1.502-.435z"/><path fill="#8eef97" d="M6.469 2.383q1.53-.765 3.062 0l.438.234q1.64.82 3.281-.117a3.7 3.7 0 0 1 1.252-.46c.272-.044.498.184.498.46v3c-.683 0-1.35.196-1.998.565-1.013.58-1.991.58-3.004 0-1.32-.754-2.676-.754-3.996 0-1.013.58-1.991.58-3.004 0C2.351 5.695 1.683 5.5 1 5.5v-3c0-.276.225-.504.498-.46a3.7 3.7 0 0 1 1.252.46q1.641.938 3.281.117z"/></svg>