<svg xmlns="http://www.w3.org/2000/svg" width="16" height="16" fill="none" viewBox="0 0 16 16"><path fill="#8eef97" d="M13.553 9.105A1 1 0 0 1 15 10v4a1 1 0 1 1-2 0v-2.382l-.553.277a1 1 0 0 1-.894-1.79zM4.734 4c1.1 0 2.005.565 2.53 1.373A5.77 5.77 0 0 1 11 4a1 1 0 1 1 0 2c-1.324 0-2.55.695-3.231 1.83l-.399.662A1.02 1.02 0 0 0 8.266 10H9a1 1 0 1 1 0 2h-.734c-1.1 0-2.006-.565-2.53-1.374A5.77 5.77 0 0 1 2 12a1 1 0 1 1 0-2c1.324 0 2.55-.695 3.231-1.83l.398-.663A1.02 1.02 0 0 0 4.734 6H4a1 1 0 0 1 0-2z"/></svg>