<svg xmlns="http://www.w3.org/2000/svg" width="16" height="16" fill="none" viewBox="0 0 16 16"><path fill="#8eef97" d="M11 5a1 1 0 0 1 1 1v1.697a1 1 0 0 1-.168.555l-1.496 2.244a2 2 0 0 0-.336 1.11V15H6v-3.395a2 2 0 0 0-.336-1.109L4.168 8.252A1 1 0 0 1 4 7.697V6a1 1 0 0 1 1-1zM8 9a1 1 0 1 0 0 2 1 1 0 0 0 0-2M3.293 1.293a1 1 0 0 1 1.414 0l1 1a1 1 0 0 1-1.414 1.414l-1-1a1 1 0 0 1 0-1.414M11.293 1.293a1 1 0 1 1 1.414 1.414l-1 1a1 1 0 1 1-1.414-1.414zM8 0a1 1 0 0 1 1 1v1.5a1 1 0 0 1-2 0V1a1 1 0 0 1 1-1"/></svg>