<svg xmlns="http://www.w3.org/2000/svg" width="16" height="16" fill="none" viewBox="0 0 16 16"><g fill="#8eef97" clip-path="url(#a)"><path d="M11 8a1.75 1.75 0 0 1 1.56.957l.055.12 2.308 5.538a1 1 0 0 1-1.846.77L12.5 14h-3l-.577 1.385a1 1 0 0 1-1.846-.77l2.308-5.538.054-.12A1.75 1.75 0 0 1 11 8m-.667 4h1.334L11 10.398zM5 0a1 1 0 0 1 1 1v1h2a1 1 0 0 1 0 2h-.085a5.97 5.97 0 0 1-1.25 2.771A4 4 0 0 0 8 7a1 1 0 0 1 0 2 5.97 5.97 0 0 1-3.001-.805A5.97 5.97 0 0 1 2 9a1 1 0 0 1 0-2c.468 0 .917-.082 1.334-.23A6 6 0 0 1 2.343 5h2.193q.2.345.463.644c.41-.465.716-1.025.875-1.644H2a1 1 0 0 1 0-2h2V1a1 1 0 0 1 1-1"/></g><defs><clipPath id="a"><path fill="#fff" d="M0 0h16v16H0z"/></clipPath></defs></svg>