<svg xmlns="http://www.w3.org/2000/svg" width="16" height="16" fill="none" viewBox="0 0 16 16"><path fill="#8eef97" d="M15 14.5a.5.5 0 0 1-.5.5h-13a.5.5 0 0 1-.5-.5v-2c.484 0 .983.138 1.502.435 1.32.754 2.676.754 3.996 0 1.013-.58 1.991-.58 3.004 0 1.32.754 2.676.754 3.996 0 .52-.297 1.018-.435 1.502-.435z"/><path fill="#8eef97" d="M15 11.5c-.683 0-1.35.196-1.998.565-1.013.58-1.991.58-3.004 0-1.32-.754-2.676-.754-3.996 0-1.013.58-1.991.58-3.004 0-.647-.37-1.315-.565-1.998-.565v-3c.484 0 .983.138 1.502.435 1.32.754 2.676.754 3.996 0 1.013-.58 1.991-.58 3.004 0 1.32.754 2.676.754 3.996 0 .52-.297 1.018-.435 1.502-.435z"/><path fill="#8eef97" d="M9 1c.914 0 3.92.418 4.427 2.401.055.216-.21.341-.4.225C11.53 2.708 9.5 3.698 9.5 5.5c0 1.56 1.217 2.507 3.413 2.612-.982.53-1.931.515-2.915-.047-1.32-.754-2.676-.754-3.996 0-1.013.58-1.991.58-3.004 0C2.351 7.695 1.683 7.5 1 7.5V7c2.5 0 2-6 8-6"/></svg>