<svg xmlns="http://www.w3.org/2000/svg" width="16" height="16" fill="none" viewBox="0 0 16 16"><path fill="#8eef97" d="M9.07 4.146a4 4 0 0 1 1.732 1L9.866 6.77a1 1 0 0 1-.155.2q.02.03.039.063A1 1 0 0 1 10 7h1.874a4 4 0 0 1 0 2H10a1 1 0 0 1-.25-.033q-.018.032-.04.063.09.09.156.202l.936 1.62a4 4 0 0 1-1.733 1.002l-.935-1.622a1 1 0 0 1-.098-.234L8 10l-.037-.002a1 1 0 0 1-.097.234l-.936 1.622a4 4 0 0 1-1.733-1.001l.937-1.62q.066-.114.154-.203-.02-.03-.039-.063A1 1 0 0 1 6 9H4.126a4 4 0 0 1 0-2H6a1 1 0 0 1 .249.032l.038-.063a1 1 0 0 1-.153-.2l-.937-1.623a4 4 0 0 1 1.732-1l.937 1.623a1 1 0 0 1 .096.233L8 6l.037.002a1 1 0 0 1 .097-.233zM8 7a1 1 0 1 0 0 2 1 1 0 0 0 0-2"/><path fill="#8eef97" d="M8 1a7 7 0 1 1 0 14A7 7 0 0 1 8 1m0 2a5 5 0 1 0 0 10A5 5 0 0 0 8 3"/></svg>