<svg xmlns="http://www.w3.org/2000/svg" width="16" height="16" fill="none" viewBox="0 0 16 16"><path fill="#8eef97" d="M14.994 2.721c.081-.763-.776-1.264-1.469-.933-1.296.617-3.218 1.42-4.969 1.712-.77.129-1.638.224-2.505.294C3.3 4.02 1.056 6.24 1.056 9v.5c0 3.5 1.5 4.5 3.5 4.5 1.638 0 2.94-1.006 3.359-2.47l-2.777.464a.5.5 0 0 1-.164-.987l3-.5a1 1 0 0 1 .082-.005c2.452-.41 3.567-1.488 3.893-2.96l-3.772.944a.501.501 0 0 1-.242-.97l4-1a.5.5 0 0 1 .121-.015c2.176-.725 2.773-2.24 2.938-3.78"/></svg>