<svg xmlns="http://www.w3.org/2000/svg" width="16" height="16" fill="none" viewBox="0 0 16 16"><g fill="#fc7f7f" clip-path="url(#a)"><path d="M13.817 8.934c.24.402.448.798.621 1.18.35.768.584 1.536.627 2.241.042.704-.105 1.47-.672 2.037s-1.334.715-2.038.672c-.705-.042-1.473-.277-2.24-.626a12 12 0 0 1-1.182-.622 21 21 0 0 0 1.681-1.357q.168.085.328.158c.64.29 1.158.429 1.533.451s.484-.072.503-.09c.018-.019.113-.128.09-.503-.022-.375-.16-.893-.45-1.533a9 9 0 0 0-.159-.327q.421-.469.806-.953.287-.361.552-.728M8 7a1 1 0 1 1 0 2 1 1 0 0 1 0-2"/><path d="M3.701.991c.706.043 1.474.278 2.241.627a13.7 13.7 0 0 1 2.086 1.203 13.7 13.7 0 0 1 2.086-1.203c.789-.358 1.567-.591 2.279-.627.713-.035 1.454.128 1.999.673s.709 1.286.674 1.999c-.036.712-.269 1.49-.628 2.28-.362.796-.867 1.635-1.478 2.47a21 21 0 0 1-2.104 2.443 21 21 0 0 1-2.443 2.104c-.835.61-1.674 1.116-2.47 1.478-.79.359-1.568.592-2.28.627-.713.036-1.454-.129-1.999-.673-.545-.545-.708-1.286-.673-2 .036-.71.269-1.49.627-2.278.307-.674.716-1.379 1.204-2.086a13.7 13.7 0 0 1-1.204-2.086c-.349-.767-.584-1.535-.627-2.24-.042-.705.106-1.47.673-2.038S2.997.949 3.701.991m8.791 1.998c-.371.019-.894.151-1.55.45a11 11 0 0 0-1.247.68 22 22 0 0 1 1.541 1.47 14 14 0 0 1-1.1 1.582l-.075.092a19.84 19.84 0 0 0-2.032-1.93 20 20 0 0 0-2.697 2.695 20 20 0 0 0 1.93 2.031c-.501.405-.998.762-1.476 1.06l-.196.117a23 23 0 0 1-1.472-1.542c-.274.436-.501.856-.68 1.248-.297.656-.43 1.178-.449 1.55-.018.367.076.472.09.485.011.013.115.109.485.09.371-.018.894-.152 1.55-.45.648-.294 1.368-.723 2.118-1.271s1.501-1.195 2.21-1.904a19 19 0 0 0 1.904-2.21c.548-.75.977-1.47 1.271-2.118.298-.656.432-1.179.45-1.55.019-.37-.077-.474-.09-.486s-.118-.107-.485-.089m-8.91 0c-.376-.023-.486.071-.504.09-.018.017-.112.128-.09.503.023.374.16.893.45 1.532.179.392.41.809.682 1.244A22 22 0 0 1 6.358 4.12a11 11 0 0 0-1.244-.682c-.64-.29-1.158-.427-1.532-.45"/></g><defs><clipPath id="a"><path fill="#fff" d="M0 0h16v16H0z"/></clipPath></defs></svg>