<svg xmlns="http://www.w3.org/2000/svg" width="16" height="16" fill="none" viewBox="0 0 16 16"><path fill="#fc7f7f" d="M9.5 1A1.5 1.5 0 0 1 11 2.5v.916c1.766.772 3 2.534 3 4.584v5a2 2 0 0 1-2 2v-3.5A2.5 2.5 0 0 0 9.5 9h-3A2.5 2.5 0 0 0 4 11.5V15a2 2 0 0 1-2-2V8a5 5 0 0 1 3-4.584V2.5A1.5 1.5 0 0 1 6.5 1zm-4 5a.5.5 0 0 0 0 1h5a.5.5 0 0 0 0-1zm1-4a.5.5 0 0 0-.5.5v.6Q6.486 3 7 3h2q.514 0 1 .1v-.6a.5.5 0 0 0-.5-.5z"/><path fill="#fc7f7f" d="M9.5 10a1.5 1.5 0 0 1 1.5 1.5V15H5v-3.5A1.5 1.5 0 0 1 6.5 10z"/></svg>