<svg xmlns="http://www.w3.org/2000/svg" width="16" height="16" fill="none" viewBox="0 0 16 16"><path fill="#fc7f7f" d="M5 8c0 .626-.096 1.229-.273 1.796l-.825-.476-.5.865.942.543a6 6 0 0 1-1.566 1.932A6.97 6.97 0 0 1 1 8c0-1.79.673-3.423 1.778-4.661a6 6 0 0 1 1.567 1.933l-.944.545.501.866.826-.477C4.905 6.772 5 7.376 5 8"/><path fill="#fc7f7f" d="M12.5 13.36A6.97 6.97 0 0 1 8 15a6.97 6.97 0 0 1-4.5-1.64 7 7 0 0 0 1.71-2.131l.79.457.5-.866-.89-.514a7 7 0 0 0 0-4.61l.89-.513-.5-.866-.788.455A7 7 0 0 0 3.5 2.64 6.97 6.97 0 0 1 8 1c1.714 0 3.283.616 4.5 1.639a7 7 0 0 0-1.733 2.176l-.865-.498-.5.866.972.56a7 7 0 0 0 .001 4.515l-.973.562.5.865.866-.5A7 7 0 0 0 12.5 13.36"/><path fill="#fc7f7f" d="M15 8c0 1.79-.672 3.422-1.777 4.66a6 6 0 0 1-1.588-1.975l.865-.5-.5-.866-.74.428a6 6 0 0 1-.001-3.493l.741.429.5-.866-.866-.5a6 6 0 0 1 1.589-1.978A6.97 6.97 0 0 1 15 8"/></svg>