<svg xmlns="http://www.w3.org/2000/svg" width="16" height="16" fill="none" viewBox="0 0 16 16"><path fill="#fc7f7f" d="M5.5 4a.5.5 0 0 1 0 1h-.349l.625 1h3.915l-.388-.776a.5.5 0 0 1 .894-.448l1.656 3.31a2.5 2.5 0 1 1-.894.447l-.508-1.012-2.027 3.244A.5.5 0 0 1 8 11H5.95A2.501 2.501 0 1 1 3.5 8c.224 0 .44.032.646.087l.78-1.56L3.975 5H3.5a.5.5 0 0 1 0-1zm-2 5a1.5 1.5 0 1 0 1.413 2H3.5a.5.5 0 0 1-.447-.724l.63-1.264A2 2 0 0 0 3.5 9m9 0q-.095 0-.185.012l.632 1.264a.5.5 0 0 1-.894.448l-.633-1.265A1.5 1.5 0 1 0 12.5 9m-8.191 1h.604a1.5 1.5 0 0 0-.335-.541zm.731-1.466c.458.36.79.874.91 1.466H7.1L5.548 7.52zM8 9.557 9.599 7H6.4z"/></svg>