<svg xmlns="http://www.w3.org/2000/svg" width="16" height="16" fill="none" viewBox="0 0 16 16"><path fill="#fc7f7f" d="M2 2q.213 0 .424.008l.026-.005q.084-.007.162.012c6.14.308 11.063 5.232 11.372 11.372a.5.5 0 0 1 .013.163c0 .008-.005.017-.006.025Q14 13.787 14 14a1 1 0 1 1-2 0q-.001-.075-.004-.148l-5.316-.533L4 16l-.646-1.94-.147.147a1 1 0 1 1-1.414-1.414l.146-.146L0 12l2.679-2.68-.532-5.317L2 4a1 1 0 0 1 0-2m5 8.414v1.933l4.93.494a9.95 9.95 0 0 0-2.188-5.17zM3.651 9h1.935l2.742-2.743a9.95 9.95 0 0 0-5.17-2.189zM13.5 7 9 2.5 15 1z"/></svg>