<svg xmlns="http://www.w3.org/2000/svg" width="16" height="16" fill="none" viewBox="0 0 16 16"><path fill="#fc7f7f" d="M11 13a1 1 0 1 1 0 2 1 1 0 0 1 0-2M8 2c1.407 0 2.698.7 3.61 1.84C12.515 4.974 13 6.472 13 8a1 1 0 1 1 2 0c0 .671-.267 1.28-.687 1.786-.413.5-.98.908-1.623 1.23a9 9 0 0 1-2.191.735C9.7 11.916 8.852 12 8 12a1 1 0 1 1 0 2c-1.407 0-2.698-.7-3.61-1.84C3.485 11.027 3 9.528 3 8l-.005.103A1 1 0 0 1 1 8c0-.671.267-1.28.687-1.786.413-.5.98-.908 1.624-1.23A9 9 0 0 1 5.5 4.25 12.4 12.4 0 0 1 8 4l-.103-.005A1 1 0 0 1 8 2m0 4c-.91 0-1.694.278-2.229.679C5.237 7.079 5 7.557 5 8s.237.92.771 1.321C6.306 9.722 7.091 10 8 10c.91 0 1.694-.278 2.229-.679.534-.4.771-.878.771-1.321s-.237-.92-.771-1.321C9.694 6.278 8.909 6 8 6M5 1a1 1 0 1 1 0 2 1 1 0 0 1 0-2"/></svg>