<svg xmlns="http://www.w3.org/2000/svg" width="16" height="16" fill="none" viewBox="0 0 16 16"><path fill="#fc7f7f" d="M3.015 12.621a.5.5 0 0 0 .485.38H6a.5.5 0 0 0 .485-.38l.406-1.62h2.218l.406 1.62a.5.5 0 0 0 .485.38h2.5a.5.5 0 0 0 .485-.38l.406-1.62H14v1.105c0 .553-.295 1.065-.773 1.344a10.38 10.38 0 0 1-10.456 0A1.56 1.56 0 0 1 2 12.106V11h.61z"/><path fill="#fc7f7f" d="M9.283 2.05a1 1 0 0 1 1.237-.688l.96.275a1 1 0 0 1 .688 1.236l-.415 1.447c.373.299.708.642 1 1.02l.826-.459a1 1 0 0 1 1.36.389l.486.874a1 1 0 0 1-.389 1.36l-1.102.612q.064.432.066.883V10h-1a.5.5 0 0 0-.485.38L12.11 12h-1.72l-.405-1.62A.5.5 0 0 0 9.5 10h-3a.5.5 0 0 0-.485.38L5.609 12H3.891l-.406-1.62A.5.5 0 0 0 3 10H2V9q0-.44.063-.861l-1.1-.61a1 1 0 0 1-.389-1.36l.487-.875a1 1 0 0 1 1.359-.388l.813.45A6 6 0 0 1 4.246 4.32l-.414-1.447a1 1 0 0 1 .688-1.236l.96-.275a1 1 0 0 1 1.237.687l.295 1.032a6 6 0 0 1 1.975 0zM5 7a1 1 0 1 0 0 2 1 1 0 0 0 0-2m6 0a1 1 0 1 0 0 2 1 1 0 0 0 0-2"/></svg>