<svg xmlns="http://www.w3.org/2000/svg" width="16" height="16" fill="none" viewBox="0 0 16 16"><path fill="#fc7f7f" d="M5.043 9.457a3.75 3.75 0 0 0 1.5 1.5L5 12.5V14a1 1 0 0 1-2 0v-1H2a1 1 0 0 1 0-2h1.5zM8.608.867C9.613.715 11.688.687 13.5 2.5c1.812 1.811 1.786 3.886 1.634 4.891-.061.402-.309.74-.634.984l-.884.663a7.32 7.32 0 0 1-5.823 1.32 2.74 2.74 0 0 1-2.151-2.151 7.3 7.3 0 0 1-.105-2.162A2.5 2.5 0 1 0 7.24 2.012l.386-.512c.244-.326.581-.572.983-.633m4.22 2.547c-.78-.78-1.73-1.098-2.121-.707-.39.39-.074 1.34.707 2.12.78.781 1.73 1.099 2.121.709.39-.39.074-1.341-.707-2.122"/></svg>