<svg xmlns="http://www.w3.org/2000/svg" width="16" height="16" fill="none" viewBox="0 0 16 16"><path fill="#fc7f7f" d="M5.586 2c.682 0 1.1.63.979 1.209a5 5 0 0 1 2.87.001c-.122-.579.297-1.21.98-1.21H14a1 1 0 0 1 1 1v3.586c0 .87-1.024 1.313-1.659.748l-1.187-1.188a.5.5 0 0 0-.707.708l2.271 2.271A3.5 3.5 0 0 1 10.5 14h-2a1.5 1.5 0 0 0 0-3h-1a1.5 1.5 0 0 0 0 3h-2a3.5 3.5 0 0 1-3.22-4.873l2.274-2.273a.5.5 0 0 0-.707-.708L2.659 7.334C2.025 7.899 1 7.455 1 6.586V3a1 1 0 0 1 1-1zM5.5 8a.5.5 0 0 0-.5.5v2a.5.5 0 0 0 1 0v-2a.5.5 0 0 0-.5-.5m5 0a.5.5 0 0 0-.5.5v2a.5.5 0 0 0 1 0v-2a.5.5 0 0 0-.5-.5"/></svg>