<svg xmlns="http://www.w3.org/2000/svg" width="16" height="16" fill="none" viewBox="0 0 16 16"><path fill="#fc7f7f" d="M11 13a1 1 0 1 1 0 2 1 1 0 0 1 0-2M8.036 1.964a3.25 3.25 0 0 1 3.41-.757 5.6 5.6 0 0 1 3.347 3.348 3.25 3.25 0 0 1-.757 3.409l-.406.406a4.15 4.15 0 0 1-1.463.946l-.104.04a4.67 4.67 0 0 0-2.708 2.707l-.039.104a4.15 4.15 0 0 1-.946 1.463l-.406.406a3.25 3.25 0 0 1-3.41.757 5.6 5.6 0 0 1-3.347-3.348 3.25 3.25 0 0 1 .757-3.409l.406-.406a4.15 4.15 0 0 1 1.463-.946l.104-.04a4.67 4.67 0 0 0 2.708-2.707l.039-.104c.208-.55.53-1.048.946-1.463zM6 12a1 1 0 1 0 0 2 1 1 0 0 0 0-2M4.5 8a1.5 1.5 0 1 0 0 3 1.5 1.5 0 0 0 0-3m7-3a1.5 1.5 0 1 0 0 3 1.5 1.5 0 0 0 0-3M10 2a1 1 0 1 0 0 2 1 1 0 0 0 0-2M13.5 10a1.5 1.5 0 1 1 0 3 1.5 1.5 0 0 1 0-3M3 1a2 2 0 1 1 0 4 2 2 0 0 1 0-4"/></svg>