<svg xmlns="http://www.w3.org/2000/svg" width="16" height="16" fill="none" viewBox="0 0 16 16"><path fill="#fc7f7f" d="M14 3a1 1 0 1 1 0 2H8.693l-2.756 7.352a1 1 0 0 1-1.866.02L2.323 8H2a1 1 0 0 1 0-2h1a1 1 0 0 1 .929.629l1.04 2.602 2.094-5.583.066-.14A1 1 0 0 1 8 3z"/><path fill="#fc7f7f" d="M10.264 7c.672 0 1.255.27 1.676.69A3.43 3.43 0 0 1 14 7a1 1 0 1 1 0 2c-.54 0-1.035.306-1.276.79l-.33.657a.382.382 0 0 0 .342.553H13a1 1 0 1 1 0 2h-.264c-.673 0-1.256-.27-1.677-.69A3.42 3.42 0 0 1 9 13a1 1 0 1 1 0-2c.54 0 1.035-.306 1.276-.79l.33-.657A.382.382 0 0 0 10.263 9H10a1 1 0 0 1 0-2z"/></svg>