<svg xmlns="http://www.w3.org/2000/svg" width="16" height="16" fill="none" viewBox="0 0 16 16"><path fill="#fc7f7f" d="M5 8c0 1.881-.867 3.56-2.222 4.66A6.97 6.97 0 0 1 1 8c0-1.79.673-3.423 1.778-4.661A5.99 5.99 0 0 1 5 8"/><path fill="#fc7f7f" d="M12.5 13.36A6.97 6.97 0 0 1 8 15a6.97 6.97 0 0 1-4.5-1.64A6.98 6.98 0 0 0 6 8a6.98 6.98 0 0 0-2.5-5.361A6.97 6.97 0 0 1 8 1c1.714 0 3.283.616 4.5 1.639A6.99 6.99 0 0 0 10 8c0 2.152.972 4.076 2.5 5.36"/><path fill="#fc7f7f" d="M15 8c0 1.79-.672 3.422-1.777 4.66A5.99 5.99 0 0 1 11 8c0-1.882.867-3.561 2.223-4.661A6.97 6.97 0 0 1 15 8"/></svg>