<svg xmlns="http://www.w3.org/2000/svg" width="16" height="16" fill="none" viewBox="0 0 16 16"><path fill="#fc7f7f" d="M6.293 9c.39 0 .707.317.707.707V14a1 1 0 0 1-1 1H1.707a.707.707 0 0 1-.5-1.207l4.586-4.586a.7.7 0 0 1 .5-.207M15 14a1 1 0 0 1-1 1h-4a1 1 0 0 1-1-1v-2.4l1.5 1 1.5-1 1.5 1 1.5-1zM14 9a1 1 0 0 1 1 1v.398l-.277.186-1.223.814L12 10.4l-1.5 1-1.223-.815L9 10.398V10a1 1 0 0 1 1-1zM6 1a1 1 0 0 1 1 1v4a1 1 0 0 1-1 1H2a1 1 0 0 1-1-1V2a1 1 0 0 1 1-1zM9.707 1c.188 0 .367.074.5.207l4.586 4.586a.708.708 0 0 1-.5 1.207H10a1 1 0 0 1-1-1V1.707c0-.39.317-.707.707-.707"/></svg>