<svg width="128" height="128" viewBox="0 0 128 128" fill="none" xmlns="http://www.w3.org/2000/svg">
<rect x="0.5" y="0.5" width="127" height="127" fill="white"/>
<rect x="0.5" y="0.5" width="127" height="127" stroke="black"/>
<path d="M90.494 114.694C90.7516 115.069 91.8796 116.24 93.3165 117.235C95.3993 118.677 96.9031 119.176 98.43 119.748C101.431 120.871 103.575 120.673 106.227 120.624C108.887 120.576 110.171 119.071 111.44 117.967C113.745 115.963 114.816 115.093 115.816 114.043C116.979 112.822 116.89 110.91 117.688 108.881C118.286 107.358 117.697 105.363 117.41 103.631C117.057 101.5 115.712 98.8931 114.823 97.0887C113.81 95.0309 112.061 92.5633 110.274 91.863C108.014 90.9774 101.403 90.7463 97.0956 91.2961C94.6375 91.6098 92.9198 94.1841 91.7116 95.7984C90.7643 97.0641 90.4048 99.1478 89.7504 100.777C89.1926 102.166 89.1226 104.56 89 107.083C89.0972 111.742 89.6129 112.959 90.2368 114.062C90.4154 114.34 90.6131 114.638 90.9255 114.982" stroke="black" stroke-width="2" stroke-linecap="round" stroke-linejoin="round"/>
<path d="M97 97.7086V114.105" stroke="black" stroke-width="2" stroke-linecap="round" stroke-linejoin="round"/>
<path d="M97.3077 105.949H107.748" stroke="black" stroke-width="2" stroke-linecap="round" stroke-linejoin="round"/>
<path d="M110.048 97C110.048 97.0144 110.048 97.0288 110.048 99.1595C110.048 101.29 110.048 105.537 110.027 107.824C109.919 110.866 109.851 111.976 109.764 113.121C109.753 113.649 109.752 114.495 109.772 115.413" stroke="black" stroke-width="2" stroke-linecap="round" stroke-linejoin="round"/>
<path d="M108.95 105.953H109.299" stroke="black" stroke-width="2" stroke-linecap="round" stroke-linejoin="round"/>
<path d="M33 39.5305C33 39.5799 33.0247 43.5793 33.1334 50.0961C33.2247 55.5638 34.7994 60.5183 35.7425 65.9685C36.1424 68.2794 36.9022 69.6075 38.8597 73.0186C42.8616 79.9921 48.3152 84.8067 49.4677 86.2227C50.4326 87.4081 53.3801 89.9916 56.4056 92.2556C58.5907 93.8908 60.3664 95.2473 61.5201 96.1424C61.7901 96.3741 62.0394 96.6138 62.3149 96.8251C62.5903 97.0363 62.8842 97.212 63.1871 97.393" stroke="#3454E5" stroke-width="2" stroke-linecap="round" stroke-linejoin="round"/>
<path d="M93.5055 39.1916C93.5055 39.241 93.4808 43.2404 93.3721 49.7571C93.2808 55.2249 91.7061 60.1794 90.763 65.6296C90.3631 67.9405 89.6033 69.2686 87.6458 72.6797C83.6439 79.6532 78.1903 84.4678 77.0378 85.8838C76.0729 87.0692 73.1254 89.6527 70.0999 91.9167C67.9148 93.5519 66.1391 94.9083 64.9854 95.8035C64.7154 96.0352 64.4661 96.2748 64.1906 96.4861C63.9152 96.6974 63.6213 96.8731 63.3184 97.0541" stroke="#3454E5" stroke-width="2" stroke-linecap="round" stroke-linejoin="round"/>
<path d="M33.436 37.9256C33.7086 37.6824 34.8492 36.9371 36.9895 36.0984C38.8788 35.3581 40.3213 34.7026 42.3642 34.0066C44.8007 33.1764 47.2912 32.8943 49.5097 32.4941C51.493 32.1362 53.0219 31.9603 54.5131 31.7995C56.0528 31.6335 57.763 31.4471 60.8093 31.2315C69.1973 30.6378 70.7709 31.3257 73.0431 31.7365C75.95 32.2621 79.693 33.3153 81.9454 33.9C86.1727 34.9976 88.0994 35.4525 89.7468 36.0897C91.4296 36.7169 92.7448 37.1573 93.4179 37.4672C93.7508 37.6253 94.0659 37.7851 94.3906 37.9497" stroke="#3454E5" stroke-width="2" stroke-linecap="round" stroke-linejoin="round"/>
<path d="M63.3185 46.1916C63.3185 46.2389 63.3185 46.7326 63.3185 52.5429C63.3185 57.884 63.3185 68.0827 63.3185 74.0243C63.3185 79.9659 63.3185 81.3413 63.3185 83.1916" stroke="#3454E5" stroke-width="2" stroke-linecap="round" stroke-linejoin="round"/>
<path d="M78.2708 46.1916C78.1746 47.0778 77.0568 52.1718 76.0781 54.9105C74.8328 56.7659 73.177 58.697 71.9377 59.8972C71.6048 60.2318 71.2315 60.6422 70.3185 61.4744" stroke="#3454E5" stroke-width="2" stroke-linecap="round" stroke-linejoin="round"/>
<path d="M48.3185 46.1916C48.4147 47.0778 49.5325 52.1718 50.5112 54.9105C51.7565 56.7659 53.4123 58.697 54.6516 59.8972C54.9844 60.2318 55.3578 60.6422 56.2708 61.4744" stroke="#3454E5" stroke-width="2" stroke-linecap="round" stroke-linejoin="round"/>
</svg>
