<svg width="128" height="128" viewBox="0 0 128 128" fill="none" xmlns="http://www.w3.org/2000/svg">
<rect x="0.5" y="0.5" width="127" height="127" fill="white"/>
<rect x="0.5" y="0.5" width="127" height="127" stroke="black"/>
<path d="M90.494 114.694C90.7516 115.069 91.8796 116.24 93.3165 117.235C95.3993 118.677 96.9031 119.176 98.43 119.748C101.431 120.871 103.575 120.673 106.227 120.624C108.887 120.576 110.171 119.071 111.44 117.967C113.745 115.963 114.816 115.093 115.816 114.043C116.979 112.822 116.89 110.91 117.688 108.881C118.286 107.358 117.697 105.363 117.41 103.631C117.057 101.5 115.712 98.8931 114.823 97.0887C113.81 95.0309 112.061 92.5633 110.274 91.863C108.014 90.9774 101.403 90.7463 97.0956 91.2961C94.6375 91.6098 92.9198 94.1841 91.7116 95.7984C90.7643 97.0641 90.4048 99.1478 89.7504 100.777C89.1926 102.166 89.1226 104.56 89 107.083C89.0972 111.742 89.6129 112.959 90.2368 114.062C90.4154 114.34 90.6131 114.638 90.9255 114.982" stroke="black" stroke-width="2" stroke-linecap="round" stroke-linejoin="round"/>
<path d="M97.2912 98.6944C97.2912 101.447 97.3943 107.718 97.8647 110.12C98.206 111.864 98.2306 113.109 98.6436 113.506C99.8 114.618 101.805 114.197 103.445 114.502C105.87 114.407 107.13 113.848 108.364 113.383C108.711 113.281 109.09 113.198 110.316 113.028" stroke="black" stroke-width="2" stroke-linecap="round" stroke-linejoin="round"/>
<path d="M29.6815 38.3389C29.6815 38.3884 29.7063 42.3877 29.815 48.9045C29.9062 54.3722 31.481 59.3267 32.4241 64.7769C32.824 67.0878 33.5837 68.4159 35.5412 71.827C39.5431 78.8005 44.9967 83.6152 46.1493 85.0311C47.1142 86.2165 50.0616 88.8 53.0871 91.064C55.2722 92.6992 57.048 94.0557 58.2017 94.9508C58.4716 95.1825 58.721 95.4222 58.9964 95.6335C59.2718 95.8448 59.5658 96.0204 59.8686 96.2014" stroke="#3454E5" stroke-width="2" stroke-linecap="round" stroke-linejoin="round"/>
<path d="M90.1871 38C90.1871 38.0494 90.1624 42.0488 90.0536 48.5656C89.9624 54.0333 88.3877 58.9878 87.4445 64.438C87.0446 66.7489 86.2849 68.077 84.3274 71.4881C80.3255 78.4616 74.8719 83.2762 73.7193 84.6922C72.7544 85.8776 69.807 88.4611 66.7815 90.7251C64.5964 92.3603 62.8207 93.7168 61.667 94.6119C61.397 94.8436 61.1476 95.0833 60.8722 95.2945C60.5968 95.5058 60.3028 95.6815 60 95.8625" stroke="#3454E5" stroke-width="2" stroke-linecap="round" stroke-linejoin="round"/>
<path d="M30.1175 36.734C30.3902 36.4909 31.5308 35.7455 33.6711 34.9068C35.5604 34.1665 37.0029 33.511 39.0457 32.815C41.4822 31.9848 43.9727 31.7027 46.1912 31.3025C48.1745 30.9446 49.7035 30.7687 51.1947 30.6079C52.7344 30.4419 54.4446 30.2555 57.4909 30.0399C65.8789 29.4462 67.4525 30.1341 69.7247 30.5449C72.6316 31.0705 76.3746 32.1237 78.6269 32.7085C82.8543 33.806 84.781 34.2609 86.4284 34.8981C88.1111 35.5253 89.4263 35.9657 90.0995 36.2756C90.4323 36.4337 90.7475 36.5935 91.0721 36.7581" stroke="#3454E5" stroke-width="2" stroke-linecap="round" stroke-linejoin="round"/>
<path d="M60 45C60 45.0474 60 45.541 60 51.3513C60 56.6924 60 66.8911 60 72.8327C60 78.7743 60 80.1497 60 82" stroke="#3454E5" stroke-width="2" stroke-linecap="round" stroke-linejoin="round"/>
<path d="M74.9523 45C74.8561 45.8862 73.7384 50.9802 72.7596 53.719C71.5143 55.5743 69.8585 57.5054 68.6193 58.7056C68.2864 59.0402 67.913 59.4506 67 60.2828" stroke="#3454E5" stroke-width="2" stroke-linecap="round" stroke-linejoin="round"/>
<path d="M45 45C45.0962 45.8862 46.214 50.9802 47.1928 53.719C48.438 55.5743 50.0939 57.5054 51.3331 58.7056C51.666 59.0402 52.0394 59.4506 52.9523 60.2828" stroke="#3454E5" stroke-width="2" stroke-linecap="round" stroke-linejoin="round"/>
</svg>
