<svg width="128" height="128" viewBox="0 0 128 128" fill="none" xmlns="http://www.w3.org/2000/svg">
<rect x="0.5" y="0.5" width="127" height="127" fill="white"/>
<rect x="0.5" y="0.5" width="127" height="127" stroke="black"/>
<path d="M46.5613 85.9944C46.2662 86.1216 44.3338 87.4833 41.9262 90.0503C40.6748 91.3845 38.7754 94.0393 37.2922 96.174C34.7501 99.8327 33.087 103.97 31.6645 107.788C31.1206 109.248 31.0144 109.765 31.0011 110.152C30.9878 110.539 31.0902 110.788 31.5413 110.928C33.8793 111.654 37.9783 108.542 40.894 106.118C43.3344 104.088 45.6537 100.729 48.4155 97.1193C50.0325 95.0963 52.0871 92.6847 53.2774 91.2452C54.4677 89.8056 54.7316 89.4112 55.2641 88.6072" stroke="black" stroke-width="2" stroke-linecap="round" stroke-linejoin="round"/>
<path d="M56.182 87.4193C56.5566 87.5529 57.9169 88.1574 60.6584 89.787C62.5407 90.9058 64.956 91.7189 71.733 94.0359C73.1084 94.5061 73.406 94.4278 73.6698 94.3066C74.208 94.0594 74.5784 93.5722 74.7413 93.1146C75.1917 91.8497 73.0158 91.0194 71.4455 89.7497C69.2904 88.0072 68.347 87.0425 67.1945 86.0172C64.6291 84.4519 63.6107 83.8141 62.8389 83.2143C62.3067 82.7941 61.4894 82.1386 60.4958 81.4261" stroke="black" stroke-width="2" stroke-linecap="round" stroke-linejoin="round"/>
<path d="M47.5606 84.143C47.5606 84.1239 45.37 81.9814 41.714 78.3244C38.3719 74.9813 37.8285 72.4095 37.2369 69.855C36.852 68.1931 36.6414 67.3308 36.8021 66.7829C37.1461 65.6102 39.0194 65.6206 40.2305 65.6249C41.5283 65.6295 43.6933 67.206 45.6051 68.231C48.4977 69.7818 50.1479 71.6621 51.7956 72.904C52.088 73.1575 52.3573 73.4186 52.5987 73.6772C52.8401 73.9359 53.0455 74.1841 53.257 74.4398" stroke="black" stroke-width="2" stroke-linecap="round" stroke-linejoin="round"/>
<path d="M53.2571 74.4398C53.271 74.1291 53.9507 71.2615 55.232 67.1351C55.8057 65.2876 56.4504 64.0147 59.6859 58.7815C62.9213 53.5483 68.7859 44.4123 72.4671 38.9698C76.1483 33.5273 77.4685 32.0551 78.3525 31.1403C79.5906 29.8589 82.7133 28.1713 87.0023 25.9249C89.1922 24.9052 90.0487 24.5845 90.713 24.241C91.0876 24.0198 91.5385 23.7036 92.6211 22.9163" stroke="black" stroke-width="2" stroke-linecap="round" stroke-linejoin="round"/>
<path d="M59.9385 80.4298C60.3464 80.352 63.2785 78.3998 69.093 71.6662C73.1078 67.0168 77.8216 58.6965 81.3151 53.456C84.8086 48.2156 86.5654 46.0083 88.3015 43.4809C90.0376 40.9534 91.6998 38.1726 93.0518 35.1593C95.7555 29.1333 96.5534 24.9993 96.78 23.3215C96.8957 19.3373 96.6441 17.6899 96.3025 17.2397C96.1033 17.021 95.8517 16.8221 95.0423 16.375" stroke="black" stroke-width="2" stroke-linecap="round" stroke-linejoin="round"/>
<path d="M85.2453 33.1336C85.2453 33.1921 85.2236 33.7723 84.2816 36.5254C83.5088 38.7843 81.5435 42.5676 79.1382 46.7374C76.7329 50.9071 73.7954 55.291 72.0023 57.8035C69.6495 60.8243 67.0024 63.0058 63.7414 65.598C62.551 66.5324 62.3035 66.6933 62.0083 66.9259" stroke="black" stroke-width="2" stroke-linecap="round" stroke-linejoin="round"/>
<path d="M89.2531 24.9542C89.3075 24.6564 91.7979 20.9723 94.0626 18.2164C94.4104 17.8353 94.75 17.4636 95.0991 17.1202C95.4481 16.7768 95.7963 16.4729 96.4404 16" stroke="black" stroke-width="2" stroke-linecap="round" stroke-linejoin="round"/>
<path d="M108.381 122.114C108.52 121.868 111.041 119.018 115.363 114.202C119.488 109.607 121.436 106.874 121.728 106.416C122.633 104.994 120.201 100.968 118.036 97.6356C116.082 94.6276 113.719 93.0233 112.712 91.3566C109.221 85.581 109.151 84.75 108.943 84.5282C107.572 83.0634 105.047 88.4484 103.062 90.2386C102.128 91.0815 100.622 92.3753 98.9606 94.2069C95.3368 98.2017 93.3729 101.22 93.0229 102.092C92.3616 103.74 95.6889 106.15 98.1554 109.538C100.355 112.559 100.962 114.817 102.358 116.463C103.541 117.859 105.2 119.461 105.799 120.341C105.964 120.585 106.145 120.863 106.336 121.101C106.527 121.339 106.722 121.531 107.185 121.929" stroke="black" stroke-width="2" stroke-linecap="round" stroke-linejoin="round"/>
<path d="M102.637 97.058C102.668 97.1361 104.501 99.5249 107.951 103.843C109.584 105.813 110.978 107.333 111.752 108.235C112.527 109.137 112.64 109.375 113.005 110.183" stroke="black" stroke-width="2" stroke-linecap="round" stroke-linejoin="round"/>
<path d="M112.534 97.1715C111.855 97.9042 109.55 100.755 107.844 103.03C103.628 108.2 102.987 109.218 102.383 110.068C102.204 110.294 101.994 110.538 101.759 110.863" stroke="black" stroke-width="2" stroke-linecap="round" stroke-linejoin="round"/>
</svg>
