<svg xmlns="http://www.w3.org/2000/svg" width="16" height="16" fill="none" viewBox="0 0 16 16"><g clip-path="url(#a)"><path fill="#ffca5f" d="M8 0a1 1 0 0 1 .707.293l2 2a1 1 0 1 1-1.414 1.414L9 3.414V7h3.586l-.293-.293a1 1 0 1 1 1.414-1.414l2 2a1 1 0 0 1 0 1.414l-2 2a1 1 0 0 1-1.414-1.414L12.586 9H9v3.586l.293-.293a1 1 0 1 1 1.414 1.414l-2 2a1 1 0 0 1-1.414 0l-2-2a1 1 0 1 1 1.414-1.414l.293.293V9H3.414l.293.293a1 1 0 1 1-1.414 1.414l-2-2a1 1 0 0 1 0-1.414l2-2a1 1 0 1 1 1.414 1.414L3.414 7H7V3.414l-.293.293a1 1 0 1 1-1.414-1.414l2-2 .073-.066A1 1 0 0 1 8 0"/></g><defs><clipPath id="a"><path fill="#fff" d="M0 0h16v16H0z"/></clipPath></defs></svg>