<svg xmlns="http://www.w3.org/2000/svg" width="16" height="16" fill="none" viewBox="0 0 16 16"><path fill="#ffca5f" d="M12.293 1.707c.63-.63 1.707-.184 1.707.707V9l-.007.257A5 5 0 0 1 13.9 10h.6a.5.5 0 0 1 0 1h-.918A5 5 0 0 1 13 12h1.5a.5.5 0 0 1 0 1H12c-.835.628-1.874 1-3 1H7a4.98 4.98 0 0 1-3-1H1.5a.5.5 0 0 1 0-1H3a5 5 0 0 1-.583-1H1.5a.5.5 0 0 1 0-1h.6a5 5 0 0 1-.094-.743L2 9V2.414c0-.89 1.077-1.337 1.707-.707l2.378 2.378Q6.531 4.001 7 4h2q.47.001.914.085zM7.707 11a.707.707 0 0 0-.5 1.207l.44.44a.5.5 0 0 0 .707 0l.44-.44a.708.708 0 0 0-.5-1.207zM5.5 8a.5.5 0 0 0-.5.5v2a.5.5 0 0 0 1 0v-2a.5.5 0 0 0-.5-.5m5 0a.5.5 0 0 0-.5.5v2a.5.5 0 0 0 1 0v-2a.5.5 0 0 0-.5-.5"/></svg>