<svg xmlns="http://www.w3.org/2000/svg" width="16" height="16" fill="none" viewBox="0 0 16 16"><path fill="#ffca5f" d="M13 12c0 1.657-2.239 3-5 3s-5-1.343-5-3V6.243c.277.278.598.524.95.736a7 7 0 0 0 1.896.763C6.535 7.913 7.266 8 8 8s1.465-.087 2.154-.258a7 7 0 0 0 1.896-.763c.352-.212.673-.458.95-.736z"/><path fill="#ffca5f" d="M8 1c2.761 0 5 1.343 5 3 0 .394-.13.784-.38 1.148-.252.364-.62.695-1.085.973a6 6 0 0 1-1.622.65A8 8 0 0 1 8 7a8 8 0 0 1-1.913-.229 6 6 0 0 1-1.622-.65C4 5.843 3.632 5.512 3.38 5.148A2 2 0 0 1 3 4c0-1.657 2.239-3 5-3"/></svg>