<svg xmlns="http://www.w3.org/2000/svg" width="16" height="16" fill="none" viewBox="0 0 16 16"><path fill="#ffca5f" d="M13 1a2 2 0 0 1 2 2v7.172l-.01.197a2 2 0 0 1-.576 1.217L12 14v-1.414l1.707-1.707a1 1 0 0 0 .293-.707V3a1 1 0 0 0-.035-.259l-2.111 2.113-.707-.708 2.11-2.112A1 1 0 0 0 13 2H5.828a1 1 0 0 0-.707.293L2.414 5H8v1H2v7a1 1 0 0 0 1 1h5v1H3l-.204-.01A2 2 0 0 1 1 13V5.828a2 2 0 0 1 .453-1.267l.133-.147 2.828-2.828A2 2 0 0 1 5.828 1z"/><path fill="#ffca5f" d="M10 5a1 1 0 0 1 1 1v8a1 1 0 1 1-2 0V6a1 1 0 0 1 1-1"/></svg>