<svg xmlns="http://www.w3.org/2000/svg" width="16" height="16" fill="none" viewBox="0 0 16 16"><path fill="#ffca5f" d="M14.293 10.293a1 1 0 1 1 1.414 1.414L14.414 13l1.293 1.293a1 1 0 1 1-1.414 1.414L13 14.414l-1.293 1.293a1 1 0 1 1-1.414-1.414L11.586 13l-1.293-1.293a1 1 0 1 1 1.414-1.414L13 11.586z"/><path fill="#ffca5f" d="M7 4a3 3 0 0 0 3 3h3v3.172l-.586-.586a2 2 0 1 0-2.828 2.828l.586.586-.586.586C9.196 13.976 9 14.488 9 15H5a2 2 0 0 1-2-2V3a2 2 0 0 1 2-2h2z"/><path fill="#ffca5f" d="M13 6h-3a2 2 0 0 1-2-2V1z"/></svg>