<svg xmlns="http://www.w3.org/2000/svg" width="16" height="16" fill="none" viewBox="0 0 16 16"><path fill="#ffca5f" d="M6 6a1 1 0 0 1 0 2H4.5a.5.5 0 0 0 0 1H6a2 2 0 0 0 2-2q-.002-.076-.009-.151.083-.038.161-.083a2 2 0 0 0 3.348.553 1.99 1.99 0 0 0 2.5.41v.614l-.001.012.001.006V9c0 1.48-.805 2.771-2 3.463V15H5v-2.096a2 2 0 0 1-.504-.24l-1.16-.773A3 3 0 0 1 2 9.395V8a2 2 0 0 1 2-2z"/><path fill="#ffca5f" d="M10 2a1 1 0 0 1 1 1v3a1 1 0 1 1-2 0V3a1 1 0 0 1 1-1M13 4a1 1 0 0 1 1 1v1a1 1 0 0 1-1.995.103L12 6V5a1 1 0 0 1 1-1M7 1a1 1 0 0 1 1 1v3c0 .328-.16.617-.403.8A2 2 0 0 0 6 5V2a1 1 0 0 1 1-1M4 3a1 1 0 0 1 1 1v1H3V4a1 1 0 0 1 1-1"/></svg>