<svg xmlns="http://www.w3.org/2000/svg" width="16" height="16" fill="none" viewBox="0 0 16 16"><path fill="#ffca5f" d="M12.756 8.013A2.5 2.5 0 0 1 15 10.5v.5a1 1 0 0 1 1 1v3a1 1 0 0 1-1 1h-5a1 1 0 0 1-1-1v-3a1 1 0 0 1 1-1v-.5A2.5 2.5 0 0 1 12.5 8zM12.5 12a.5.5 0 0 0-.5.5v2a.5.5 0 0 0 1 0v-2a.5.5 0 0 0-.5-.5m0-3a1.5 1.5 0 0 0-1.5 1.5v.5h3v-.5A1.5 1.5 0 0 0 12.5 9"/><path fill="#ffca5f" d="M15 8.052a3.5 3.5 0 0 0-5.991 2.212A2 2 0 0 0 8 12v2H3a2 2 0 0 1-2-2V7h14zM5.586 2a1 1 0 0 1 .707.293L8 4h5a2 2 0 0 1 2 2H1V4a2 2 0 0 1 2-2z"/></svg>