<svg xmlns="http://www.w3.org/2000/svg" width="16" height="16" fill="none" viewBox="0 0 16 16"><path fill="#ffca5f" d="M3.646 6.354a.5.5 0 0 1 .707 0l2.793 2.793a.5.5 0 0 1-.353.853H5l2.146 2.147a.5.5 0 0 1-.353.853H5v2H3v-2H1.207a.5.5 0 0 1-.354-.853L3 10H1.207a.5.5 0 0 1-.354-.853zM11.646 6.354a.5.5 0 0 1 .707 0l2.793 2.793a.5.5 0 0 1-.353.853H13l2.146 2.147a.5.5 0 0 1-.353.853H13v2h-2v-2H9.207a.5.5 0 0 1-.354-.853L11 10H9.207a.5.5 0 0 1-.354-.853zM7.646.354a.5.5 0 0 1 .707 0l2.793 2.793a.5.5 0 0 1-.353.853H9l1.793 1.793L9.586 7H9v.586l-.854.854q-.08.08-.146.169l-.063-.079-.084-.09L7 7.586V7h-.586L5.207 5.793 7 4H5.207a.5.5 0 0 1-.354-.853z"/></svg>