<svg xmlns="http://www.w3.org/2000/svg" width="16" height="16" fill="none" viewBox="0 0 16 16"><path fill="#ffca5f" d="M8 3a.75.75 0 0 1 .303 1.435c-.065.072-.19.249-.324.586C7.693 5.736 7.5 6.808 7.5 8q0 .248.01.488.241.011.49.012c1.192 0 2.264-.193 2.979-.479.337-.135.513-.26.586-.325A.75.75 0 0 1 13 8a.9.9 0 0 1-.097.392q-.097.192-.284.374c-.249.24-.615.46-1.084.648C10.598 9.79 9.326 10 8 10q-.154-.001-.308-.007c.078.374.175.707.287.986.134.337.258.513.324.586A.75.75 0 0 1 8 13a.9.9 0 0 1-.392-.097 1.4 1.4 0 0 1-.374-.284c-.24-.249-.46-.615-.648-1.084a8 8 0 0 1-.442-1.68 8 8 0 0 1-1.68-.44c-.468-.188-.834-.41-1.083-.65a1.4 1.4 0 0 1-.284-.373A.9.9 0 0 1 3 8a.75.75 0 0 1 1.435-.304c.072.065.248.19.586.325.279.112.612.208.985.286Q6 8.154 6 8c0-1.326.21-2.598.586-3.535.187-.469.408-.835.648-1.084q.181-.188.374-.284l.097-.042A.8.8 0 0 1 8 3"/><path fill="#ffca5f" d="M13.293 1.293a1 1 0 1 1 1.414 1.414l-1 1a1 1 0 0 1-.108.09 7 7 0 0 1-9.8 9.8 1 1 0 0 1-.092.11l-1 1a1 1 0 1 1-1.414-1.414l1-1q.051-.05.107-.092a7 7 0 0 1 9.8-9.8q.044-.057.093-.108zM8 2.5a5.5 5.5 0 1 0 0 11 5.5 5.5 0 0 0 0-11"/></svg>