<svg xmlns="http://www.w3.org/2000/svg" width="16" height="16" fill="none" viewBox="0 0 16 16"><path fill="#ffca5f" d="M4 9a3 3 0 1 1 0 6 3 3 0 0 1 0-6M14 9a1 1 0 0 1 1 1v4a1 1 0 0 1-1 1h-4a1 1 0 0 1-1-1v-4a1 1 0 0 1 1-1zM13.647.854a.5.5 0 0 1 .707 0l.793.793a.5.5 0 0 1 0 .707L13.5 4l1.646 1.647a.5.5 0 0 1 0 .707l-.793.793a.5.5 0 0 1-.707 0L12 5.5l-1.646 1.647a.5.5 0 0 1-.708 0l-.792-.793a.5.5 0 0 1 0-.707L10.5 4 8.854 2.354a.5.5 0 0 1 0-.707l.792-.793a.5.5 0 0 1 .707 0L12 2.5zM3.56 1.317a.5.5 0 0 1 .88 0l2.663 4.946a.5.5 0 0 1-.44.737H1.337a.5.5 0 0 1-.44-.737z"/></svg>