<svg xmlns="http://www.w3.org/2000/svg" width="16" height="16" fill="none" viewBox="0 0 16 16"><path fill="#ffca5f" d="M4.451 9.337A1 1 0 1 1 5.62 10.96q-.3.216-.588.46c-.45.31-.88.792-1.207 1.235-.208.282-.393.571-.534.83-.114.208-.215.43-.268.625q-.039.104-.073.206a1.001 1.001 0 0 1-1.897-.632c.152-.457.353-.89.589-1.301a11.6 11.6 0 0 1 2.518-2.828q.146-.113.292-.218M8.993 8.685c-.02.35-.062.762-.136 1.196h-.003q-.011.082-.026.162c-.127.688-.321 1.386-.596 1.963a3 3 0 0 1-.525.732c-.99.99-2.27 1.295-3.44 1.057.103-.172.225-.36.362-.545.384-.52.814-.952 1.14-1.11.657-.314 1.634-1.36 1.24-3.145a15 15 0 0 0 1.984-.31"/><path fill="#ffca5f" d="M10.418 5.088c.336-.234.634-.274.866-.23.24.045.447.186.583.382a.87.87 0 0 1 .148.666c-.045.227-.197.497-.566.742C10.082 7.55 8.202 7.882 6.91 8c-.266.008-.563.02-.872.049a8.4 8.4 0 0 0-1.48.254c-.465.132-.732.285-.851.404l-.021.022a12.3 12.3 0 0 0-2.364 2.374 3.78 3.78 0 0 1 .97-3.81c.477-.476 1.132-.746 1.717-.913a10.3 10.3 0 0 1 1.845-.322c.478-.044.927-.06 1.29-.065l.001-.009c1.05-.042 1.927-.126 3.235-.873l.02-.01z"/><path fill="#ffca5f" d="M8.292 3.137a3.76 3.76 0 0 1 4.174-.834l.264.123c.522.28 1.117.746 1.519 1.37l-.007.014c.9 1.428.842 3.395-.536 4.773-.476.476-1.132.747-1.716.913-.606.173-1.262.269-1.845.322q-.136.013-.27.02c.066-.43.107-.835.123-1.186l.007-.243c.693-.223 1.383-.522 1.996-.928.56-.37.89-.857.994-1.382.102-.52-.03-1.03-.307-1.429a1.92 1.92 0 0 0-1.218-.795c-.509-.096-1.062.017-1.586.37-1.014.578-1.666.685-2.536.73l.03-.116c.167-.586.437-1.245.914-1.722M13.129 1.507a1 1 0 0 1 1.82.81q-.085.25-.19.49a5.4 5.4 0 0 0-1.63-1.3"/></svg>