<svg xmlns="http://www.w3.org/2000/svg" width="16" height="16" fill="none" viewBox="0 0 16 16"><g fill="#ffca5f" clip-path="url(#a)"><path d="M9.293 12.293a1 1 0 1 1 1.414 1.414l-2 2a1 1 0 0 1-1.414 0l-2-2a1 1 0 1 1 1.414-1.414L8 13.586zM2.293 5.293a1 1 0 1 1 1.414 1.414L2.414 8l1.293 1.293a1 1 0 1 1-1.414 1.414l-2-2a1 1 0 0 1 0-1.414zM12.293 5.293a1 1 0 0 1 1.414 0l2 2a1 1 0 0 1 0 1.414l-2 2a1 1 0 0 1-1.414-1.414L13.586 8l-1.293-1.293a1 1 0 0 1 0-1.414M8 6a2 2 0 1 1 0 4 2 2 0 0 1 0-4M8 0a1 1 0 0 1 .707.293l2 2a1 1 0 1 1-1.414 1.414L8 2.414 6.707 3.707a1 1 0 1 1-1.414-1.414l2-2 .073-.066A1 1 0 0 1 8 0"/></g><defs><clipPath id="a"><path fill="#fff" d="M0 0h16v16H0z"/></clipPath></defs></svg>