<svg xmlns="http://www.w3.org/2000/svg" width="16" height="16" fill="none" viewBox="0 0 16 16"><path fill="#ffca5f" d="M7 15H3l1-1h4zM15 13a2 2 0 0 1-2 2h-2l1-1h1v-1l2-2zM2 9.4c0 .72.294 1.367.764 1.835L1 13V9l1-1zM8 3a5 5 0 0 1 5 5v1.4c0 .672-.414 1.244-1 1.482V13h-2v-2H9v2H7v-2H6v2H4v-2.118c-.586-.238-1-.81-1-1.482V8a5 5 0 0 1 5-5M5.5 6a1.5 1.5 0 1 0 0 3 1.5 1.5 0 0 0 0-3m5 0a1.5 1.5 0 1 0 0 3 1.5 1.5 0 0 0 0-3M15 7l-1 1a5.97 5.97 0 0 0-.877-3.124L15 3zM1 5V3a2 2 0 0 1 2-2h2zM11.123 2.876A5.97 5.97 0 0 0 8 2l1-1h4z"/></svg>