<svg xmlns="http://www.w3.org/2000/svg" width="16" height="16" fill="none" viewBox="0 0 16 16"><path fill="#ffca5f" d="M9.422 11.69a2 2 0 0 1 2.156 0l.707.453A1.552 1.552 0 0 1 11.45 15H9.551a1.551 1.551 0 0 1-.836-2.857zM7.5 9a1.5 1.5 0 1 1 0 3 1.5 1.5 0 0 1 0-3M13.5 9a1.5 1.5 0 1 1 0 3 1.5 1.5 0 0 1 0-3M10.5 7a1.5 1.5 0 1 1 0 3 1.5 1.5 0 0 1 0-3M4.422 4.69a2 2 0 0 1 2.156 0l.707.453A1.552 1.552 0 0 1 6.45 8H4.551a1.551 1.551 0 0 1-.836-2.857zM2.5 2a1.5 1.5 0 1 1 0 3 1.5 1.5 0 0 1 0-3M8.5 2a1.5 1.5 0 1 1 0 3 1.5 1.5 0 0 1 0-3M5.5 0a1.5 1.5 0 1 1 0 3 1.5 1.5 0 0 1 0-3"/></svg>