<svg xmlns="http://www.w3.org/2000/svg" width="16" height="16" fill="none" viewBox="0 0 16 16"><path fill="#ffca5f" d="M7.69 2.689C9.63.749 12.46.434 14.013 1.986s1.237 4.383-.703 6.324c-.889.888-1.965 1.436-3.018 1.62-1.645.287-3.59.366-4.77 1.547l-.274.272L5.5 12l-3 3L1 13.5l3-3 .249.25.274-.274c1.18-1.18 1.26-3.126 1.546-4.77.171-.982.658-1.983 1.443-2.834zM9 8v.95c.314.054.65.06 1 .013V8zm2 0v.693a4.7 4.7 0 0 0 1-.57V8zM7.441 8A2.1 2.1 0 0 0 8 8.558V8zm-.406-2c-.046.35-.04.687.015 1H8V6zM9 7h1V6H9zm2 0h1V6h-1zm2 0h.123q.362-.492.57-1H13zM7.876 4a4.7 4.7 0 0 0-.57 1H8V4zM9 5h1V4H9zm2 0h1V4h-1zm2 0h.964c.046-.349.04-.686-.014-1H13zm-3-2.694a4.7 4.7 0 0 0-1 .57V3h1zm2-.257a3.3 3.3 0 0 0-1-.015V3h1zM13 3h.56a2.1 2.1 0 0 0-.56-.56z"/></svg>