<svg xmlns="http://www.w3.org/2000/svg" width="16" height="16" fill="none" viewBox="0 0 16 16"><path fill="#ffca5f" d="M9 13h2a2 2 0 0 1 2 2H3a2 2 0 0 1 2-2h2V5.825c.313.111.649.175 1 .175a3 3 0 0 0 1-.175z"/><path fill="#ffca5f" d="M8 1c.74 0 1.385.403 1.73 1H14a1 1 0 1 1 0 2h-.962l1.926 4.814q.035.092.034.186H15a2.5 2.5 0 0 1-5 0 .5.5 0 0 1 .036-.186L11.962 4H9.73a2 2 0 0 1-3.46 0H4.038l1.926 4.814q.035.092.034.186H6a2.5 2.5 0 0 1-5 0 .5.5 0 0 1 .036-.186L2.962 4H2a1 1 0 0 1 0-2h4.27c.345-.597.99-1 1.73-1M2.038 9h2.924L3.5 5.345zm9 0h2.924L12.5 5.345z"/></svg>