<svg xmlns="http://www.w3.org/2000/svg" width="16" height="16" fill="none" viewBox="0 0 16 16"><path fill="#ffca5f" d="M10 0a2 2 0 0 1 2 2h1.065a.5.5 0 0 1 .416.777L12 5v1h1.065a.5.5 0 0 1 .416.777L12 9v1h1.065a.5.5 0 0 1 .416.777L12 13a2 2 0 0 1-2 2H9v1H7v-1H6a2 2 0 0 1-1.99-1.796L4 13l-1.481-2.223A.5.5 0 0 1 2.935 10H4V9L2.519 6.777A.5.5 0 0 1 2.935 6H4V5L2.519 2.777A.5.5 0 0 1 2.935 2H4a2 2 0 0 1 2-2zM8 10a1.5 1.5 0 1 0 0 3 1.5 1.5 0 0 0 0-3m0-4a1.5 1.5 0 1 0 0 3 1.5 1.5 0 0 0 0-3m0-4a1.5 1.5 0 1 0 0 3 1.5 1.5 0 0 0 0-3"/></svg>